<?xml version="1.0" encoding="UTF-8"?>
<svg version="1.1" xmlns="http://www.w3.org/2000/svg" width="487" height="422">
<path d="M0 0 C3.58123177 2.0997103 6.8492205 4.34751564 10.0625 6.9765625 C14.4323605 10.37534289 19.05162829 10.97737495 24.46630859 11.0012207 C25.66129974 11.01075272 26.85629089 11.02028473 28.0874939 11.03010559 C29.36573029 11.02919418 30.64396667 11.02828278 31.9609375 11.02734375 C33.30083345 11.0312367 34.64072818 11.0355726 35.98062134 11.04032898 C38.78302009 11.04776953 41.58529283 11.04751603 44.38769531 11.04223633 C47.96069361 11.0364487 51.53317233 11.05336552 55.10608482 11.076581 C57.87209029 11.09138812 60.63797268 11.09218056 63.40401077 11.08907127 C65.35590146 11.08982728 67.30777319 11.1036443 69.25961304 11.11775208 C78.12860918 11.07176579 84.91503429 10.27510935 91.8125 4.2265625 C96.90849406 0.08497283 101.30749225 -1.89781153 107.8125 -2.7109375 C114.99540727 -1.81307409 120.00448922 1.51122193 124.53125 7.09765625 C132.26786243 18.51594609 136.93283365 31.74490128 141.3125 44.7265625 C141.72677246 45.9333667 141.72677246 45.9333667 142.14941406 47.16455078 C148.27644853 65.24545119 155.0382795 89.30089722 147.5625 107.9140625 C144.60429971 113.42135027 141.481699 116.55126972 135.5 118.5390625 C125.82318543 121.03308687 116.40194919 119.79205602 107.44921875 115.28515625 C100.71191055 111.1779712 95.0522561 106.10097399 89.3125 100.7265625 C87.98396683 99.57516708 86.65089567 98.42897865 85.3125 97.2890625 C82.16729257 94.57332114 79.31195555 91.66388371 76.4375 88.6640625 C67.91587534 80.11641762 59.65873334 75.9360019 47.5234375 75.6640625 C33.79087891 76.28299472 25.18965799 84.64460262 16.0625 94.0703125 C3.42556081 107.08386103 -9.53195121 118.71619258 -28.4375 119.9765625 C-34.15239963 119.85613358 -39.91068657 118.82227075 -44.55078125 115.3203125 C-51.75924819 107.73621825 -52.14519516 98.15679553 -52.03466797 88.22583008 C-51.24273959 61.08786069 -42.15128258 24.16044484 -23.25 3.7890625 C-16.29168521 -2.63750334 -8.59904895 -4.07454935 0 0 Z M108.3125 17.7265625 C105.99686913 19.61156521 105.99686913 19.61156521 106.0625 22.7265625 C105.99686913 25.84155979 105.99686913 25.84155979 108.3125 27.7265625 C112.13814665 27.53899188 112.13814665 27.53899188 115.3125 25.7265625 C115.64590471 22.76851677 115.64590471 22.76851677 115.3125 19.7265625 C112.35872502 17.35676237 112.35872502 17.35676237 108.3125 17.7265625 Z M-19.6875 27.7265625 C-21.70266737 31.98799441 -21.8787269 34.94890645 -20.75 39.5390625 C-18.13500873 43.58041264 -16.30975874 44.49396017 -11.6875 45.7265625 C-7.58077035 45.65695691 -5.50977328 45.39736439 -2.3125 42.7890625 C0.72597635 38.93253482 0.6725735 35.49279859 0.3125 30.7265625 C-0.55422034 27.81123044 -1.45849711 26.91515312 -3.8125 24.9765625 C-9.78999991 22.3776495 -15.26837948 22.52759718 -19.6875 27.7265625 Z M95.3125 30.7265625 C94.89583333 33.7265625 94.89583333 33.7265625 95.3125 36.7265625 C97.13953227 38.9757533 97.13953227 38.9757533 99.8125 38.9765625 C102.48546773 38.9757533 102.48546773 38.9757533 104.3125 36.7265625 C103.98923447 33.12977184 103.98923447 33.12977184 103.3125 29.7265625 C99.13439931 28.53725063 99.13439931 28.53725063 95.3125 30.7265625 Z M118.5 29.8515625 C116.93740591 32.31881632 116.94453552 33.85643954 117.3125 36.7265625 C117.9725 37.3865625 118.6325 38.0465625 119.3125 38.7265625 C122.90929066 38.40329697 122.90929066 38.40329697 126.3125 37.7265625 C127.17422797 35.31372418 127.39974082 34.03190536 126.6875 31.5390625 C125.40333233 29.51590791 125.40333233 29.51590791 122.875 28.7890625 C120.32003811 28.49259843 120.32003811 28.49259843 118.5 29.8515625 Z M47.3125 29.7265625 C45.68499963 32.04979703 45.68499963 32.04979703 44.3125 34.7265625 C44.6425 35.7165625 44.9725 36.7065625 45.3125 37.7265625 C47.66617713 38.4143861 47.66617713 38.4143861 50.3125 38.7265625 C51.3025 38.0665625 52.2925 37.4065625 53.3125 36.7265625 C52.9825 34.7465625 52.6525 32.7665625 52.3125 30.7265625 C50.6625 30.3965625 49.0125 30.0665625 47.3125 29.7265625 Z M16.3125 36.7265625 C16.3125 37.0565625 16.3125 37.3865625 16.3125 37.7265625 C18.9525 37.7265625 21.5925 37.7265625 24.3125 37.7265625 C24.3125 37.3965625 24.3125 37.0665625 24.3125 36.7265625 C21.6725 36.7265625 19.0325 36.7265625 16.3125 36.7265625 Z M73.3125 36.7265625 C73.3125 37.0565625 73.3125 37.3865625 73.3125 37.7265625 C75.9525 37.7265625 78.5925 37.7265625 81.3125 37.7265625 C81.3125 37.3965625 81.3125 37.0665625 81.3125 36.7265625 C78.6725 36.7265625 76.0325 36.7265625 73.3125 36.7265625 Z M9.3125 39.7265625 C8.9825 40.3865625 8.6525 41.0465625 8.3125 41.7265625 C9.3025 41.3965625 10.2925 41.0665625 11.3125 40.7265625 C10.6525 40.3965625 9.9925 40.0665625 9.3125 39.7265625 Z M66.3125 39.7265625 C65.9825 40.3865625 65.6525 41.0465625 65.3125 41.7265625 C66.3025 41.3965625 67.2925 41.0665625 68.3125 40.7265625 C67.6525 40.3965625 66.9925 40.0665625 66.3125 39.7265625 Z M68.3125 43.7265625 C64.9347201 47.37821644 63.47994878 49.98509518 63 54.9765625 C63.4568737 60.45904694 65.29406266 63.88622257 69.4375 67.6640625 C73.76520006 69.26342992 77.75817359 69.3834365 82.3125 68.7265625 C86.71867281 66.56353221 89.4769597 64.31541326 91.3125 59.7265625 C92.027828 54.95770917 91.80097963 51.66863036 89.5625 47.3515625 C85.50814222 42.62147843 82.76378062 41.15314127 76.55859375 40.6640625 C73.14261212 40.7591159 71.09208871 41.78731456 68.3125 43.7265625 Z M107.3125 40.7265625 C106.27035309 45.34164024 106.27035309 45.34164024 107.3125 49.7265625 C111.45343698 49.93626809 111.45343698 49.93626809 115.3125 48.7265625 C116.32519438 46.27921774 116.42441513 45.0826561 115.625 42.5390625 C114.45107699 40.58718929 114.45107699 40.58718929 112.375 39.9140625 C110.11507287 39.56969441 110.11507287 39.56969441 107.3125 40.7265625 Z M16.3125 42.7265625 C15.6525 45.0365625 14.9925 47.3465625 14.3125 49.7265625 C12.3325 50.0565625 10.3525 50.3865625 8.3125 50.7265625 C8.3125 53.6965625 8.3125 56.6665625 8.3125 59.7265625 C10.6225 60.3865625 12.9325 61.0465625 15.3125 61.7265625 C15.6425 63.7065625 15.9725 65.6865625 16.3125 67.7265625 C18.9525 67.7265625 21.5925 67.7265625 24.3125 67.7265625 C24.498125 66.6128125 24.68375 65.4990625 24.875 64.3515625 C25.349375 63.1553125 25.82375 61.9590625 26.3125 60.7265625 C29.9375 59.2890625 29.9375 59.2890625 33.3125 58.7265625 C33.3125 56.4165625 33.3125 54.1065625 33.3125 51.7265625 C31.0025 51.0665625 28.6925 50.4065625 26.3125 49.7265625 C25.9825 47.4165625 25.6525 45.1065625 25.3125 42.7265625 C22.3425 42.7265625 19.3725 42.7265625 16.3125 42.7265625 Z M5.3125 43.7265625 C6.3125 45.7265625 6.3125 45.7265625 6.3125 45.7265625 Z M34.3125 43.7265625 C35.3125 45.7265625 35.3125 45.7265625 35.3125 45.7265625 Z M62.3125 43.7265625 C63.3125 45.7265625 63.3125 45.7265625 63.3125 45.7265625 Z M3.3125 47.7265625 C4.3125 49.7265625 4.3125 49.7265625 4.3125 49.7265625 Z M60.3125 47.7265625 C61.3125 49.7265625 61.3125 49.7265625 61.3125 49.7265625 Z M37.3125 49.7265625 C38.3125 51.7265625 38.3125 51.7265625 38.3125 51.7265625 Z M59.3125 49.7265625 C59.3125 51.3765625 59.3125 53.0265625 59.3125 54.7265625 C59.6425 54.7265625 59.9725 54.7265625 60.3125 54.7265625 C60.3125 53.0765625 60.3125 51.4265625 60.3125 49.7265625 C59.9825 49.7265625 59.6525 49.7265625 59.3125 49.7265625 Z M94.3125 49.7265625 C95.3125 51.7265625 95.3125 51.7265625 95.3125 51.7265625 Z M2.3125 50.7265625 C3.3125 53.7265625 3.3125 53.7265625 3.3125 53.7265625 Z M2.3125 55.7265625 C3.3125 59.7265625 3.3125 59.7265625 3.3125 59.7265625 Z M59.3125 55.7265625 C60.3125 59.7265625 60.3125 59.7265625 60.3125 59.7265625 Z M37.3125 58.7265625 C38.3125 60.7265625 38.3125 60.7265625 38.3125 60.7265625 Z M94.3125 58.7265625 C95.3125 60.7265625 95.3125 60.7265625 95.3125 60.7265625 Z M3.3125 60.7265625 C4.3125 62.7265625 4.3125 62.7265625 4.3125 62.7265625 Z M60.3125 60.7265625 C61.3125 62.7265625 61.3125 62.7265625 61.3125 62.7265625 Z M4.3125 62.7265625 C5.3125 64.7265625 5.3125 64.7265625 5.3125 64.7265625 Z M61.3125 62.7265625 C62.3125 64.7265625 62.3125 64.7265625 62.3125 64.7265625 Z M34.3125 64.7265625 C35.3125 66.7265625 35.3125 66.7265625 35.3125 66.7265625 Z M91.3125 64.7265625 C92.3125 66.7265625 92.3125 66.7265625 92.3125 66.7265625 Z M6.3125 65.7265625 C7.3125 67.7265625 7.3125 67.7265625 7.3125 67.7265625 Z M63.3125 65.7265625 C64.3125 67.7265625 64.3125 67.7265625 64.3125 67.7265625 Z M64.3125 67.7265625 C64.6425 68.3865625 64.9725 69.0465625 65.3125 69.7265625 C65.9725 69.3965625 66.6325 69.0665625 67.3125 68.7265625 C66.3225 68.3965625 65.3325 68.0665625 64.3125 67.7265625 Z M30.3125 68.7265625 C29.9825 69.3865625 29.6525 70.0465625 29.3125 70.7265625 C30.3025 70.3965625 31.2925 70.0665625 32.3125 69.7265625 C31.6525 69.3965625 30.9925 69.0665625 30.3125 68.7265625 Z M87.3125 68.7265625 C86.9825 69.3865625 86.6525 70.0465625 86.3125 70.7265625 C87.3025 70.3965625 88.2925 70.0665625 89.3125 69.7265625 C88.6525 69.3965625 87.9925 69.0665625 87.3125 68.7265625 Z M18.3125 72.7265625 C22.3125 73.7265625 22.3125 73.7265625 22.3125 73.7265625 Z M75.3125 72.7265625 C79.3125 73.7265625 79.3125 73.7265625 79.3125 73.7265625 Z " fill="#C7E1ED" transform="translate(189.6875,166.2734375)"/>
<path d="M0 0 C1 3 1 3 1.3125 6.875 C1.95543867 12.28557616 4.81465948 14.84288187 8.625 18.5625 C12.30076337 22.33499398 13.25629441 24.958681 13.1953125 30.203125 C13.18886719 31.1828125 13.18242187 32.1625 13.17578125 33.171875 C13.15064453 34.69554688 13.15064453 34.69554688 13.125 36.25 C13.11597656 37.28125 13.10695313 38.3125 13.09765625 39.375 C13.07412011 41.91690287 13.04124023 44.4583328 13 47 C14.65 47.66 16.3 48.32 18 49 C17.60554688 47.26363281 17.60554688 47.26363281 17.203125 45.4921875 C16.88410723 43.95339589 16.56647149 42.4143173 16.25 40.875 C16.07339844 40.11445312 15.89679688 39.35390625 15.71484375 38.5703125 C14.87727628 34.34605915 14.7246589 32.56483524 16.671875 28.5703125 C18.76689758 26.25735133 20.09980686 25.03578326 23 24 C22.94199219 24.88042969 22.88398438 25.76085937 22.82421875 26.66796875 C22.30092675 33.7852266 22.30092675 33.7852266 25.25 39.9375 C26.1575 40.618125 27.065 41.29875 28 42 C32.14265746 46.70247603 32.41060535 50.23562867 32.22265625 56.25 C32.02655161 58.67206433 31.67975852 60.98644738 31.25 63.375 C30.63049395 67.08507043 30.63049395 67.08507043 32.9375 70 C33.618125 70.66 34.29875 71.32 35 72 C36.32 71.67 37.64 71.34 39 71 C38.72285156 70.10539062 38.44570313 69.21078125 38.16015625 68.2890625 C34.71172884 56.77794183 33.27354377 47.85219815 36 36 C36.33 36 36.66 36 37 36 C37.09796875 36.9178125 37.1959375 37.835625 37.296875 38.78125 C38.52810553 48.88583158 40.53700353 55.19983184 47 63 C48.94282132 68.82846395 48.17088604 74.56641311 46.9375 80.5 C45.95696998 85.44437477 45.66140624 90.0882245 47 95 C47.66 95.66 48.32 96.32 49 97 C52.61601216 91.42531458 52.30720059 86.39432346 52 80 C54.79822679 83.31520125 56.18818992 86.69781061 57.6875 90.75 C58.12449219 91.92046875 58.56148437 93.0909375 59.01171875 94.296875 C59.33785156 95.18890625 59.66398438 96.0809375 60 97 C60.44730469 96.40832031 60.89460937 95.81664062 61.35546875 95.20703125 C66.54929577 88.41851107 66.54929577 88.41851107 69.625 85.5625 C76.40295982 78.24943808 77.98595257 69.65615313 79 60 C87.3720014 63.23178756 90.89472115 68.21815814 95 76 C96.0062237 79.0186711 96.18190516 81.23995456 96.28125 84.40234375 C96.33732422 85.98499023 96.33732422 85.98499023 96.39453125 87.59960938 C96.42933594 88.70111328 96.46414063 89.80261719 96.5 90.9375 C96.56899536 93.11340913 96.64175966 95.28920284 96.71875 97.46484375 C96.74904297 98.430271 96.77933594 99.39569824 96.81054688 100.39038086 C96.97991444 102.72333178 97.34695999 104.76095847 98 107 C100.64 107 103.28 107 106 107 C107.96290189 99.95664616 107.99939172 94.22533204 107 87 C113.04443083 92.00824268 116.16143224 98.50373209 117.59375 106.18359375 C118.14784572 114.42576755 115.72915849 119.04548751 110.65234375 125.44140625 C108.73243142 127.82485763 108.73243142 127.82485763 109.25390625 130.33984375 C109.62322266 131.16162109 109.62322266 131.16162109 110 132 C113.99500618 130.6302836 116.80009492 128.74277578 120 126 C118.67568776 135.28995157 115.99949622 143.47706522 109 150 C108.78907715 149.48727539 108.5781543 148.97455078 108.36083984 148.44628906 C99.70549295 123.62258412 99.70549295 123.62258412 81.25 106.59765625 C72.40657872 104.24862247 65.50763438 105.99407293 57.63671875 110.3359375 C54.47281883 112.3327099 51.78061699 114.50457449 49 117 C45.76969597 118.07676801 43.38580589 118.14634852 39.98730469 118.17700195 C38.74881775 118.18983719 37.51033081 118.20267242 36.23431396 118.21589661 C34.88017173 118.22406547 33.52602494 118.23150892 32.171875 118.23828125 C31.14653027 118.24439454 31.14653027 118.24439454 30.1004715 118.25063133 C26.48088383 118.27147556 22.86133387 118.28578317 19.24169922 118.29516602 C15.51487013 118.30621463 11.78864072 118.34060035 8.06202316 118.38033772 C5.18626851 118.4065651 2.31065529 118.41486331 -0.56520844 118.41844749 C-1.93826081 118.42329935 -3.31130746 118.43487334 -4.68424225 118.45348549 C-17.86560911 118.62104182 -17.86560911 118.62104182 -24 114 C-24.80566406 113.46117187 -25.61132812 112.92234375 -26.44140625 112.3671875 C-27.14136719 111.87476563 -27.84132812 111.38234375 -28.5625 110.875 C-35.41958112 106.31129559 -41.78386409 104.78155263 -50 106 C-60.64083489 109.83947651 -66.2123886 119.0296777 -70.89770508 128.78344727 C-73.38716053 134.13507888 -75.6827546 139.57221797 -78 145 C-83.68314202 141.48982404 -86.46903009 135.99694781 -89 130 C-89.6853536 126.90255777 -89.89546678 124.18826333 -90 121 C-88.9171875 121.9590625 -88.9171875 121.9590625 -87.8125 122.9375 C-85.01808816 124.98673535 -83.38336726 125.61332946 -80 126 C-80.95075033 121.43639841 -82.01736945 118.80858437 -85.125 115.3125 C-88.46432879 111.04375211 -88.86244767 107.51913631 -88.59765625 102.17578125 C-87.33253788 95.45328954 -84.16613392 88.60763296 -79 84 C-79.03480469 85.12019531 -79.06960937 86.24039063 -79.10546875 87.39453125 C-79.13360839 88.86717251 -79.16090837 90.33982998 -79.1875 91.8125 C-79.21263672 92.55048828 -79.23777344 93.28847656 -79.26367188 94.04882812 C-79.30434274 97.04491507 -79.32338653 99.40990294 -77.86328125 102.07421875 C-75.06042828 103.46683123 -72.95585488 102.7225423 -70 102 C-69.98018066 101.37544922 -69.96036133 100.75089844 -69.93994141 100.10742188 C-69.84383068 97.23790619 -69.73450513 94.36903453 -69.625 91.5 C-69.5940625 90.51773438 -69.563125 89.53546875 -69.53125 88.5234375 C-69.15098243 79.01674833 -68.15910818 71.0465086 -61.03125 64.07421875 C-55.41808617 59 -55.41808617 59 -53 59 C-52.82984375 59.9178125 -52.6596875 60.835625 -52.484375 61.78125 C-50.28968527 72.89478524 -48.07995631 79.33713614 -39.83984375 87.1015625 C-37.45298373 89.56443717 -36.26494209 91.83764479 -35 95 C-32.82190638 91.73285958 -31.10834136 88.3249824 -29.375 84.8125 C-29.05015625 84.15830078 -28.7253125 83.50410156 -28.390625 82.83007812 C-27.5919346 81.22095188 -26.79572351 79.61059545 -26 78 C-25.67 78 -25.34 78 -25 78 C-24.87882812 78.89203125 -24.75765625 79.7840625 -24.6328125 80.703125 C-24.46523437 81.87359375 -24.29765625 83.0440625 -24.125 84.25 C-23.96257812 85.41015625 -23.80015625 86.5703125 -23.6328125 87.765625 C-23.07666251 90.60816941 -22.62930731 92.62440158 -21 95 C-16.9134809 96.1640191 -16.9134809 96.1640191 -13 95 C-13.2242396 90.62732788 -14.47614909 88.12911487 -17 84.6875 C-19.48099491 81.03862211 -21.22720664 78.09578972 -21.5234375 73.64453125 C-20.64024779 69.18244591 -18.11200658 65.46983813 -15.84521484 61.58178711 C-13.22033975 56.9107265 -12.37565731 53.96784621 -13.48046875 48.60546875 C-14.74286272 42.27451553 -15.748159 33.76031919 -12.0625 28.125 C-11.381875 27.42375 -10.70125 26.7225 -10 26 C-9.67 26 -9.34 26 -9 26 C-9.04640625 26.68964844 -9.0928125 27.37929687 -9.140625 28.08984375 C-9.3334979 33.1114274 -9.33088646 36.97775197 -7 41.5 C-4.68990617 45.98239259 -4.6980915 49.73900157 -4.95703125 54.71484375 C-5.17736198 57.03190093 -5.17736198 57.03190093 -4 59 C-3.01 59 -2.02 59 -1 59 C-1.39742834 55.62185907 -1.75453437 52.59200535 -3.0625 49.4375 C-4.29999906 46.22000243 -4.52982072 44.44383468 -4 41 C-3.04947956 39.48856197 -2.04313399 38.01157057 -1 36.5625 C0.97742895 33.7261401 1.99140074 32.03571999 2.8125 28.625 C1.951518 24.78369571 0.68393498 22.79614711 -1.5 19.5625 C-5.54199946 13.56522438 -5.54199946 13.56522438 -5.75 9.6875 C-4.80405937 5.03662524 -3.31547367 3.31547367 0 0 Z " fill="#AFD4E9" transform="translate(225,54)"/>
<path d="M0 0 C2 0.125 2 0.125 4 1 C5.125 3 5.125 3 6 5 C6.99 5.495 6.99 5.495 8 6 C9.00561523 8.4140625 9.00561523 8.4140625 10.05859375 11.625 C10.44337891 12.79828857 10.82816406 13.97157715 11.22460938 15.18041992 C11.63026206 16.45318195 12.0345321 17.72638539 12.4375 19 C12.64109131 19.63870026 12.84468262 20.27740051 13.05444336 20.93545532 C19.11019107 40.03081806 25.70483515 64.1222699 17.25 83.4375 C14.47612484 88.42435644 10.51540849 90.70686345 5.125 92.25 C-5.31342738 94.43616121 -15.53526848 92.4162649 -24.625 86.875 C-30.20631852 83.06846046 -35.07879864 78.60795906 -40 74 C-41.32853317 72.84860458 -42.66160433 71.70241615 -44 70.5625 C-47.17270796 67.81836348 -50.08128896 64.88714539 -53 61.875 C-56.52632148 58.29434383 -59.90571509 55.4526032 -64.30859375 53.03515625 C-66.95101934 51.41796738 -68.67169529 49.83338889 -69.8125 46.9375 C-69.874375 46.298125 -69.93625 45.65875 -70 45 C-68 43 -68 43 -65.125 42.6875 C-62 43 -62 43 -60.1328125 44.48828125 C-56.189882 47.28299572 -51.62071618 46.69470078 -47 46 C-42.55512544 44.13186431 -39.67581354 42.0137203 -37 38 C-36.34 38 -35.68 38 -35 38 C-33.19008873 31.21283273 -33.56390084 23.82147102 -35 17 C-35.66 17 -36.32 17 -37 17 C-37.66 14.69 -38.32 12.38 -39 10 C-34.125 10.875 -34.125 10.875 -33 12 C-28.83009336 12.42781673 -28.83009336 12.42781673 -25.1875 10.6875 C-23.80544154 8.89523775 -23.80544154 8.89523775 -23 6 C-22.01 6 -21.02 6 -20 6 C-20 6.66 -20 7.32 -20 8 C-19.34 8 -18.68 8 -18 8 C-18 7.34 -18 6.68 -18 6 C-16.68 6 -15.36 6 -14 6 C-12.875 10.75 -12.875 10.75 -14 13 C-16.64860427 13.59355614 -19.29197322 13.74209269 -22 14 C-22 16.97 -22 19.94 -22 23 C-18.7 22.34 -15.4 21.68 -12 21 C-12 18.36 -12 15.72 -12 13 C-8.7 12.67 -5.4 12.34 -2 12 C-2.04125 10.39125 -2.0825 8.7825 -2.125 7.125 C-2.1953125 4.3828125 -2.1953125 4.3828125 -2 2 C-1.34 1.34 -0.68 0.68 0 0 Z " fill="#C7E2EE" transform="translate(319,193)"/>
<path d="M0 0 C7.26 0 14.52 0 22 0 C22.99 4.95 23.98 9.9 25 15 C25.99 10.05 26.98 5.1 28 0 C35.26 0 42.52 0 50 0 C50.59392957 5.93929573 51.13611002 11.61504342 51.31640625 17.5390625 C51.33718735 18.19079437 51.35796844 18.84252625 51.37937927 19.51400757 C51.44361015 21.55092142 51.50315635 23.58793855 51.5625 25.625 C51.60580627 27.02474932 51.64942387 28.42448904 51.69335938 29.82421875 C51.79862355 33.21606451 51.90076009 36.60797354 52 40 C49.85423363 40.02685938 47.70837355 40.04633088 45.5625 40.0625 C44.36753906 40.07410156 43.17257812 40.08570313 41.94140625 40.09765625 C39 40 39 40 38 39 C37.84285346 37.36743242 37.74914586 35.72864662 37.68359375 34.08984375 C37.62643188 32.75360962 37.62643188 32.75360962 37.56811523 31.39038086 C37.52501221 30.25093018 37.48190918 29.11147949 37.4375 27.9375 C37.293125 24.328125 37.14875 20.71875 37 17 C35.35 24.59 33.7 32.18 32 40 C27.38 40 22.76 40 18 40 C15.525 28.615 15.525 28.615 13 17 C12.67 24.59 12.34 32.18 12 40 C7.38 40 2.76 40 -2 40 C-1.85750737 35.7706976 -1.71108363 31.54158935 -1.5625 27.3125 C-1.52318359 26.13365234 -1.48386719 24.95480469 -1.44335938 23.74023438 C-1.16069986 15.80402495 -0.656303 7.91424206 0 0 Z " fill="#EDEEEE" transform="translate(336,304)"/>
<path d="M0 0 C4.29 0 8.58 0 13 0 C16.13328094 3.52494105 17.90148602 5.96307665 20 10 C20.9675113 11.54900786 21.94545454 13.09158901 22.9375 14.625 C23.9584375 16.295625 23.9584375 16.295625 25 18 C25.33 12.06 25.66 6.12 26 0 C30.29 0 34.58 0 39 0 C39 13.2 39 26.4 39 40 C25 40 25 40 21.2265625 36.28125 C20.30662436 34.71735517 19.4395167 33.12130064 18.625 31.5 C18.16351563 30.68917969 17.70203125 29.87835938 17.2265625 29.04296875 C16.10373469 27.05462784 15.04501571 25.03031624 14 23 C13.67 28.61 13.34 34.22 13 40 C8.71 40 4.42 40 0 40 C0 26.8 0 13.6 0 0 Z " fill="#EDEEEE" transform="translate(97,304)"/>
<path d="M0 0 C4.30876985 2.67276893 6.39751916 6.57110471 7.83203125 11.39453125 C9.51040961 19.59819369 7.87347195 27.27613071 3.4375 34.3125 C-0.69781586 38.32966398 -4.80149163 39.80625752 -10.56152344 39.90576172 C-11.2424707 39.89561035 -11.92341797 39.88545898 -12.625 39.875 C-13.33172852 39.86742676 -14.03845703 39.85985352 -14.76660156 39.85205078 C-20.1869903 39.68070947 -24.57936273 39.03591264 -28.75 35.4375 C-34.51100622 28.19931269 -34.28591759 21.37620092 -33.75 12.4375 C-32.74232182 7.0755427 -29.55709218 3.95472034 -25.46875 0.6015625 C-19.3874545 -3.51713309 -6.5025353 -2.88727374 0 0 Z M-16.75 7.4375 C-19.01395884 11.05442228 -19.04901538 14.16330264 -19.0625 18.375 C-19.07925781 19.58027344 -19.09601563 20.78554688 -19.11328125 22.02734375 C-18.72394153 25.68211339 -18.02597713 27.57520558 -15.75 30.4375 C-12.75 31.27083333 -12.75 31.27083333 -9.75 30.4375 C-6.79193235 26.64617386 -6.34176537 23.67897419 -6.375 18.9375 C-6.36726563 17.8340625 -6.35953125 16.730625 -6.3515625 15.59375 C-6.79336755 12.093961 -7.53774854 10.17623693 -9.75 7.4375 C-13.37599422 7.02024322 -13.37599422 7.02024322 -16.75 7.4375 Z " fill="#EBECED" transform="translate(84.75,305.5625)"/>
<path d="M0 0 C4.33125 -0.061875 8.6625 -0.12375 13.125 -0.1875 C14.47996582 -0.21481201 15.83493164 -0.24212402 17.23095703 -0.27026367 C18.85300049 -0.28150269 18.85300049 -0.28150269 20.5078125 -0.29296875 C21.60754395 -0.3086792 22.70727539 -0.32438965 23.84033203 -0.34057617 C28.24091508 0.13375649 31.53910331 1.73388954 34.875 4.625 C36.65015678 8.37255319 36.66676068 11.9362691 36 16 C34.89322771 18.35249001 33.66673923 19.96866157 32 22 C32.45375 22.825 32.9075 23.65 33.375 24.5 C35.75203207 29.61976139 37 34.29845732 37 40 C32.38 40 27.76 40 23 40 C21.43281 35.29842999 20.15735226 30.79474509 19 26 C17.35 25.67 15.7 25.34 14 25 C14 29.95 14 34.9 14 40 C9.38 40 4.76 40 0 40 C0 26.8 0 13.6 0 0 Z M14 8 C14 10.97 14 13.94 14 17 C16.64 16.67 19.28 16.34 22 16 C22 14.02 22 12.04 22 10 C18.08936776 8.52952664 18.08936776 8.52952664 14 8 Z " fill="#EEEFF0" transform="translate(426,304)"/>
<path d="M0 0 C4.62 0 9.24 0 14 0 C14.06058594 2.15402344 14.12117187 4.30804688 14.18359375 6.52734375 C14.24534241 8.6057501 14.30874691 10.68409975 14.37231445 12.76245117 C14.4157163 14.2106424 14.45738744 15.65888654 14.49731445 17.10717773 C14.55489062 19.18489559 14.61862028 21.26234573 14.68359375 23.33984375 C14.72025146 24.59144287 14.75690918 25.84304199 14.79467773 27.13256836 C14.67803906 29.89630504 14.67803906 29.89630504 16 31 C18.64 31.33 21.28 31.66 24 32 C24.33 21.44 24.66 10.88 25 0 C29.62 0 34.24 0 39 0 C39.0543919 3.95852183 39.09386401 7.91628182 39.125 11.875 C39.14175781 12.98359375 39.15851563 14.0921875 39.17578125 15.234375 C39.27579329 32.2364222 39.27579329 32.2364222 35.61376953 36.68334961 C30.29537228 41.22852753 26.41200797 41.21016737 19.75 41.25 C18.90308594 41.270625 18.05617187 41.29125 17.18359375 41.3125 C12.05817472 41.34438441 8.3271813 41.04695014 4 38 C0.25768032 33.38100097 -0.48498064 30.3112903 -0.390625 24.4140625 C-0.38496521 23.71227875 -0.37930542 23.010495 -0.37347412 22.28744507 C-0.35124483 20.06590913 -0.30108056 17.84604077 -0.25 15.625 C-0.22991731 14.11070053 -0.21166964 12.59637554 -0.1953125 11.08203125 C-0.15483982 7.38687587 -0.07654213 3.69528384 0 0 Z " fill="#ECECED" transform="translate(177,304)"/>
<path d="M0 0 C0.79792969 0.00515625 1.59585937 0.0103125 2.41796875 0.015625 C6.08522026 0.06460332 9.32678899 0.25781323 12.875 1.25 C13 8 13 8 11.875 10.25 C8.85546875 10.62890625 8.85546875 10.62890625 5.0625 10.8125 C-0.64690855 10.90897668 -0.64690855 10.90897668 -6.125 12.25 C-7.88753267 17.53759801 -7.98833474 23.13482988 -5.875 28.3125 C-4.08653518 30.65442493 -4.08653518 30.65442493 -0.125 31.25 C0.205 26.96 0.535 22.67 0.875 18.25 C5.495 18.25 10.115 18.25 14.875 18.25 C14.875 24.85 14.875 31.45 14.875 38.25 C5.8592255 41.63091544 5.8592255 41.63091544 2.5859375 41.6484375 C1.51472656 41.65423828 1.51472656 41.65423828 0.421875 41.66015625 C-0.29484375 41.64855469 -1.0115625 41.63695312 -1.75 41.625 C-2.47445313 41.63660156 -3.19890625 41.64820313 -3.9453125 41.66015625 C-8.72174279 41.63419739 -11.97933178 40.83645672 -16.125 38.25 C-21.22891246 33.03008953 -23.17284326 28.58689624 -23.4375 21.375 C-23.28468525 15.02363695 -21.85917124 10.35912719 -17.8125 5.4375 C-11.94089028 0.65828279 -7.31990159 -0.19105779 0 0 Z " fill="#E9EAEB" transform="translate(275.125,303.75)"/>
<path d="M0 0 C5.94 0 11.88 0 18 0 C20.58615008 6.89640023 22.89354854 13.80217045 25.0715332 20.82885742 C25.69196947 22.82689335 26.31946347 24.82262735 26.94726562 26.81835938 C27.34417917 28.0936165 27.7406787 29.36900258 28.13671875 30.64453125 C28.49467529 31.79284424 28.85263184 32.94115723 29.22143555 34.12426758 C30 37 30 37 30 40 C25.38 40 20.76 40 16 40 C15.34 37.03 14.68 34.06 14 31 C10.7 31 7.4 31 4 31 C3.34 33.97 2.68 36.94 2 40 C-2.62 40 -7.24 40 -12 40 C-10.33233687 31.42207756 -7.59351285 23.22451848 -4.875 14.9375 C-4.4019611 13.48515062 -3.92930174 12.03267756 -3.45703125 10.58007812 C-2.30975319 7.0516949 -1.15473338 3.52598475 0 0 Z M8 13 C7.34 16.3 6.68 19.6 6 23 C7.98 23 9.96 23 12 23 C11.34 19.7 10.68 16.4 10 13 C9.34 13 8.68 13 8 13 Z " fill="#EDEEEF" transform="translate(303,304)"/>
<path d="M0 0 C0.86689453 0.00064453 1.73378906 0.00128906 2.62695312 0.00195312 C9.03111434 0.04680717 9.03111434 0.04680717 11.3125 1.1875 C11.4375 7.9375 11.4375 7.9375 10.3125 10.1875 C7.15234375 10.6015625 7.15234375 10.6015625 3.25 10.8125 C1.95964844 10.88726562 0.66929687 10.96203125 -0.66015625 11.0390625 C-1.65917969 11.08804687 -2.65820312 11.13703125 -3.6875 11.1875 C-3.6875 11.8475 -3.6875 12.5075 -3.6875 13.1875 C-2.79546875 13.49042969 -1.9034375 13.79335938 -0.984375 14.10546875 C0.18609375 14.52441406 1.3565625 14.94335938 2.5625 15.375 C3.72265625 15.78105469 4.8828125 16.18710937 6.078125 16.60546875 C10.17087193 18.60735583 12.49783282 20.87705045 14.02734375 25.21484375 C14.59227191 30.06133269 14.1372946 32.99901145 11.3125 37.1875 C7.89071272 40.28849472 4.82982563 41.31301396 0.2578125 41.3203125 C-0.52207031 41.32160156 -1.30195313 41.32289063 -2.10546875 41.32421875 C-3.32169922 41.31841797 -3.32169922 41.31841797 -4.5625 41.3125 C-5.36558594 41.31636719 -6.16867188 41.32023437 -6.99609375 41.32421875 C-7.77855469 41.32292969 -8.56101563 41.32164062 -9.3671875 41.3203125 C-10.07601074 41.31918457 -10.78483398 41.31805664 -11.51513672 41.31689453 C-13.6875 41.1875 -13.6875 41.1875 -18.6875 40.1875 C-18.0275 36.8875 -17.3675 33.5875 -16.6875 30.1875 C-11.4075 30.5175 -6.1275 30.8475 -0.6875 31.1875 C-0.3575 30.1975 -0.0275 29.2075 0.3125 28.1875 C-0.33976562 28.01734375 -0.99203125 27.8471875 -1.6640625 27.671875 C-13.77175163 24.31458067 -13.77175163 24.31458067 -16.82421875 19.33203125 C-18.77045759 14.49725694 -18.16683559 9.57505039 -16.5 4.75 C-12.49077634 -0.91821276 -6.31344448 -0.09039596 0 0 Z " fill="#ECEDEE" transform="translate(158.6875,303.8125)"/>
<path d="M0 0 C9.9 0 19.8 0 30 0 C30 2.64 30 5.28 30 8 C24.72 8 19.44 8 14 8 C14 10.31 14 12.62 14 15 C18.62 15 23.24 15 28 15 C28 17.64 28 20.28 28 23 C23.38 23 18.76 23 14 23 C14 25.97 14 28.94 14 32 C19.28 32 24.56 32 30 32 C30 34.64 30 37.28 30 40 C20.1 40 10.2 40 0 40 C0 26.8 0 13.6 0 0 Z " fill="#F3F4F5" transform="translate(392,304)"/>
<path d="M0 0 C0.76699219 0.00515625 1.53398438 0.0103125 2.32421875 0.015625 C7.93913879 0.09456939 7.93913879 0.09456939 10.25 1.25 C10.25 4.22 10.25 7.19 10.25 10.25 C5.3 10.58 0.35 10.91 -4.75 11.25 C-7.09773158 17.11932896 -7.79340382 21.18500129 -5.75 27.1875 C-2.8349951 30.19359881 0.26799664 30.16735465 4.25 30.25 C5.384375 30.25 6.51875 30.25 7.6875 30.25 C8.533125 30.25 9.37875 30.25 10.25 30.25 C11.25 31.25 11.25 31.25 11.34765625 33.09765625 C11.31510417 35.1484375 11.28255208 37.19921875 11.25 39.25 C7.4059472 41.78565488 3.38031643 41.61732011 -1.0625 41.625 C-1.79662109 41.64949219 -2.53074219 41.67398438 -3.28710938 41.69921875 C-8.90797759 41.72914351 -12.10946202 40.42356691 -16.75 37.25 C-21.38532522 32.61467478 -22.54431187 27.80053286 -23.0625 21.375 C-22.87449951 15.32373434 -21.23588119 10.09731176 -17.4375 5.375 C-11.64661164 0.79615804 -7.15903693 -0.19647443 0 0 Z " fill="#EDEEEF" transform="translate(37.75,303.75)"/>
<path d="M0 0 C4.62 0 9.24 0 14 0 C14 10.23 14 20.46 14 31 C19.61 31 25.22 31 31 31 C31 33.97 31 36.94 31 40 C20.77 40 10.54 40 0 40 C0 26.8 0 13.6 0 0 Z " fill="#EDEEEE" transform="translate(220,304)"/>
<path d="M0 0 C0 0.99 0 1.98 0 3 C2.36375566 5.10770734 2.36375566 5.10770734 5 7 C6.97389657 8.97389657 7.95890517 10.43730503 9 13 C8.67 13.66 8.34 14.32 8 15 C8.66 15 9.32 15 10 15 C10 18.63 10 22.26 10 26 C8.02 26.99 8.02 26.99 6 28 C3.55623159 30.38110769 1.18365454 32.80014065 -1.125 35.3125 C-5.62813822 37.95564634 -9.92098914 37.96916563 -15 37 C-20.65948454 33.87430304 -24.48102473 28.2784629 -28 23 C-28.30078125 20.66015625 -28.30078125 20.66015625 -28.3125 18.0625 C-28.32925781 17.20785156 -28.34601563 16.35320312 -28.36328125 15.47265625 C-27.53469459 9.83292126 -22.31722825 6.25955541 -18 3 C-12.57860396 0.08078675 -6.06621957 -0.18956936 0 0 Z M-13 6 C-13.66 8.31 -14.32 10.62 -15 13 C-16.98 13.33 -18.96 13.66 -21 14 C-21 16.97 -21 19.94 -21 23 C-18.69 23.66 -16.38 24.32 -14 25 C-13.67 26.98 -13.34 28.96 -13 31 C-10.36 31 -7.72 31 -5 31 C-4.814375 29.88625 -4.62875 28.7725 -4.4375 27.625 C-3.963125 26.42875 -3.48875 25.2325 -3 24 C0.625 22.5625 0.625 22.5625 4 22 C4 19.69 4 17.38 4 15 C1.69 14.34 -0.62 13.68 -3 13 C-3.33 10.69 -3.66 8.38 -4 6 C-6.97 6 -9.94 6 -13 6 Z M-26 11 C-25 13 -25 13 -25 13 Z M-27 14 C-26 17 -26 17 -26 17 Z M-27 19 C-26 23 -26 23 -26 23 Z M8 22 C9 24 9 24 9 24 Z " fill="#B5CDD7" transform="translate(219,203)"/>
<path d="M0 0 C6.04443083 5.00824268 9.16143224 11.50373209 10.59375 19.18359375 C11.14784572 27.42576755 8.72915849 32.04548751 3.65234375 38.44140625 C1.73243142 40.82485763 1.73243142 40.82485763 2.25390625 43.33984375 C2.50011719 43.88769531 2.74632812 44.43554688 3 45 C6.99500618 43.6302836 9.80009492 41.74277578 13 39 C11.67568776 48.28995157 8.99949622 56.47706522 2 63 C1.7733667 62.46109131 1.5467334 61.92218262 1.31323242 61.36694336 C0.27156452 58.89035999 -0.77046536 56.41392908 -1.8125 53.9375 C-2.16892578 53.08994141 -2.52535156 52.24238281 -2.89257812 51.36914062 C-3.24384766 50.53447266 -3.59511719 49.69980469 -3.95703125 48.83984375 C-4.30290283 48.01734131 -4.64877441 47.19483887 -5.00512695 46.34741211 C-5.89573051 44.24602483 -6.80487551 42.15382963 -7.71875 40.0625 C-8.86030179 37.3339128 -9.5585597 34.91350598 -10 32 C-8.68 31.34 -7.36 30.68 -6 30 C-6 29.34 -6 28.68 -6 28 C-4 26.375 -4 26.375 -2 25 C-1.67 25.33 -1.34 25.66 -1 26 C-0.67 25.34 -0.34 24.68 0 24 C-0.66 24 -1.32 24 -2 24 C-2 23.34 -2 22.68 -2 22 C-4.64 22.66 -7.28 23.32 -10 24 C-10.33 23.01 -10.66 22.02 -11 21 C-10.01 19.515 -10.01 19.515 -9 18 C-9 18.66 -9 19.32 -9 20 C-6.36 20 -3.72 20 -1 20 C0.96290189 12.95664616 0.99939172 7.22533204 0 0 Z " fill="#A5C6D8" transform="translate(332,141)"/>
<path d="M0 0 C0.99386719 0.02707031 1.98773438 0.05414063 3.01171875 0.08203125 C4.15060547 0.13423828 4.15060547 0.13423828 5.3125 0.1875 C5.3125 0.8475 5.3125 1.5075 5.3125 2.1875 C6.22 2.455625 7.1275 2.72375 8.0625 3 C11.04747101 4.09066248 12.85362724 5.25552855 15.3125 7.1875 C15.9725 7.1875 16.6325 7.1875 17.3125 7.1875 C19.86221958 13.243084 20.39958012 19.92625963 18.3125 26.1875 C16.57407089 27.92592911 14.80174812 29.52532858 12.9375 31.125 C12.35226562 31.62902344 11.76703125 32.13304687 11.1640625 32.65234375 C10.55304688 33.15894531 9.94203125 33.66554687 9.3125 34.1875 C8.37470703 35.00734375 8.37470703 35.00734375 7.41796875 35.84375 C3.40167217 38.40702648 -1.12443371 38.00071973 -5.6875 37.1875 C-8.50671158 35.57216796 -10.53180187 33.59508677 -12.6875 31.1875 C-14.35846095 29.43716841 -15.51442398 28.27403801 -17.6875 27.1875 C-18.79098459 24.10607132 -18.79273224 21.18515038 -18.75 17.9375 C-18.74097656 17.04546875 -18.73195312 16.1534375 -18.72265625 15.234375 C-18.71105469 14.55890625 -18.69945312 13.8834375 -18.6875 13.1875 C-18.0275 13.1875 -17.3675 13.1875 -16.6875 13.1875 C-16.59210938 12.59066406 -16.49671875 11.99382812 -16.3984375 11.37890625 C-15.53334345 8.71232515 -14.49164467 7.84900686 -12.3125 6.125 C-9.64336632 3.99609717 -9.64336632 3.99609717 -7.31640625 1.515625 C-4.91912094 -0.43899611 -3.03546904 -0.1071342 0 0 Z M-8.6875 7.1875 C-12.0652799 10.83915394 -13.52005122 13.44603268 -14 18.4375 C-13.5431263 23.91998444 -11.70593734 27.34716007 -7.5625 31.125 C-3.23479994 32.72436742 0.75817359 32.844374 5.3125 32.1875 C9.71867281 30.02446971 12.4769597 27.77635076 14.3125 23.1875 C15.027828 18.41864667 14.80097963 15.12956786 12.5625 10.8125 C8.50814222 6.08241593 5.76378062 4.61407877 -0.44140625 4.125 C-3.85738788 4.2200534 -5.90791129 5.24825206 -8.6875 7.1875 Z M17.3125 13.1875 C18.3125 15.1875 18.3125 15.1875 18.3125 15.1875 Z M-17.6875 19.1875 C-16.6875 23.1875 -16.6875 23.1875 -16.6875 23.1875 Z M-16.6875 24.1875 C-15.6875 26.1875 -15.6875 26.1875 -15.6875 26.1875 Z " fill="#68767C" transform="translate(266.6875,202.8125)"/>
<path d="M0 0 C1.19799449 4.14659373 0.8896192 7.99369047 0.5625 12.25 C0.51029297 12.99507812 0.45808594 13.74015625 0.40429688 14.5078125 C0.2751783 16.33894861 0.13834886 18.16953813 0 20 C-1.65 19.67 -3.3 19.34 -5 19 C-5.74957157 22.47147842 -5.74957157 22.47147842 -6 26 C-4.68 26.33 -3.36 26.66 -2 27 C-2.33 27.99 -2.66 28.98 -3 30 C-1.68 30.99 -0.36 31.98 1 33 C1.99 32.505 1.99 32.505 3 32 C2.67 32.495 2.34 32.99 2 33.5 C0.54579212 37.1355197 0.81073989 40.08862439 1 44 C1.33 44.66 1.66 45.32 2 46 C3.32 46 4.64 46 6 46 C6.33 45.34 6.66 44.68 7 44 C8.36420006 48.09260018 6.7664515 50.47012659 5.0625 54.1875 C4.77181641 54.84169922 4.48113281 55.49589844 4.18164062 56.16992188 C3.46304657 57.78381344 2.7326412 59.39243655 2 61 C-4.05590789 56.58165904 -7.96802128 50.66400772 -9.6015625 43.28125 C-9.83251895 41.19604321 -9.93125143 39.09683138 -10 37 C-8.9171875 37.9590625 -8.9171875 37.9590625 -7.8125 38.9375 C-5.01808816 40.98673535 -3.38336726 41.61332946 0 42 C-0.95075033 37.43639841 -2.01736945 34.80858437 -5.125 31.3125 C-8.46449727 27.04353675 -8.85955698 23.51898277 -8.6015625 18.17578125 C-7.32083462 11.41453603 -3.77524243 5.66286364 0 0 Z " fill="#A5C5D6" transform="translate(145,138)"/>
<path d="M0 0 C0.66 0.33 1.32 0.66 2 1 C2 5.29 2 9.58 2 14 C2.66 14.33 3.32 14.66 4 15 C4 11.37 4 7.74 4 4 C6.31 4 8.62 4 11 4 C11 4.33 11 4.66 11 5 C9.02 5 7.04 5 5 5 C5 7.97 5 10.94 5 14 C6.423125 13.938125 6.423125 13.938125 7.875 13.875 C11 14 11 14 13 16 C13.125 19.125 13.125 19.125 13 22 C16.96 21.505 16.96 21.505 21 21 C21.33 19.02 21.66 17.04 22 15 C22.33 15 22.66 15 23 15 C23 17.97 23 20.94 23 24 C23.99 24.33 24.98 24.66 26 25 C22.00917076 28.50482662 18.92538018 28.6221768 13.7578125 28.484375 C7.42439022 27.37198922 3.61966799 21.96028576 0 17 C-2.15164703 13.77252945 -2.27245079 12.79494361 -2.25 9.0625 C-2.25515625 8.20785156 -2.2603125 7.35320312 -2.265625 6.47265625 C-1.98713633 3.88025433 -1.30669172 2.23485766 0 0 Z M0 2 C1 4 1 4 1 4 Z M-1 5 C0 8 0 8 0 8 Z M-1 10 C0 14 0 14 0 14 Z " fill="#8D9FA7" transform="translate(193,212)"/>
<path d="M0 0 C0.33 0 0.66 0 1 0 C0.95359375 0.68964844 0.9071875 1.37929687 0.859375 2.08984375 C0.66790031 7.075024 0.6374623 10.90780723 3 15.375 C5.9194221 21.01853075 5.34498 26.79994282 5 33 C3.9275 33.28875 2.855 33.5775 1.75 33.875 C-1.09400364 34.72820109 -3.43508983 35.5636503 -6 37 C-4.125 32.25 -4.125 32.25 -3 30 C-3.09102988 28.57875922 -3.24820717 27.16151692 -3.4375 25.75 C-5.42549951 7.26697751 -5.42549951 7.26697751 -2.0625 2.125 C-1.0415625 1.073125 -1.0415625 1.073125 0 0 Z " fill="#A3C2D3" transform="translate(215,80)"/>
<path d="M0 0 C6.06697622 5.02692316 9.53270616 11.68468441 10.3828125 19.53515625 C10.43270818 22.75342751 10.44606182 25.81183181 10 29 C9.34 29.66 8.68 30.32 8 31 C8 28.36 8 25.72 8 23 C7.34 23 6.68 23 6 23 C5.67 23.99 5.34 24.98 5 26 C4.34 25.01 3.68 24.02 3 23 C2.01 22.67 1.02 22.34 0 22 C0 22.66 0 23.32 0 24 C-0.66 24 -1.32 24 -2 24 C-2 23.34 -2 22.68 -2 22 C-4.64 22.66 -7.28 23.32 -10 24 C-10.33 23.01 -10.66 22.02 -11 21 C-10.01 19.515 -10.01 19.515 -9 18 C-9 18.66 -9 19.32 -9 20 C-6.36 20 -3.72 20 -1 20 C0.96290189 12.95664616 0.99939172 7.22533204 0 0 Z " fill="#A7C8DA" transform="translate(332,141)"/>
<path d="M0 0 C0.66 0 1.32 0 2 0 C2.01417969 0.556875 2.02835937 1.11375 2.04296875 1.6875 C2.39372945 7.29967127 3.7276743 10.55652866 6.921875 15.13671875 C8.45570977 17.78758536 8.37300409 20.01596728 8 23 C5.20129973 24.39935013 3.09501208 24.25265405 0 24 C-2.55949546 22.14657225 -2.97918798 21.06243607 -4 18 C-4.99477647 6.69868695 -4.99477647 6.69868695 -2.125 2.25 C-1.42375 1.5075 -0.7225 0.765 0 0 Z " fill="#A1BFCF" transform="translate(323,104)"/>
<path d="M0 0 C3.56531407 3.07913488 4.83041476 6.31956443 5.30078125 10.98046875 C5.32408212 17.35713998 4.82409786 22.73302883 2.734375 28.765625 C1.72645281 31.83228187 1.34806187 34.7978308 1 38 C0.34 38 -0.32 38 -1 38 C-5.04284185 28.65092822 -2.82844124 19.02403118 -0.65625 9.48046875 C-0.04135973 6.21935426 0.12154852 3.30713276 0 0 Z " fill="#9DB8C7" transform="translate(199,72)"/>
<path d="M0 0 C0.33 0 0.66 0 1 0 C1.66 2.31 2.32 4.62 3 7 C4.98 6.67 6.96 6.34 9 6 C9.33 4.35 9.66 2.7 10 1 C10.66 1 11.32 1 12 1 C12 2.98 12 4.96 12 7 C14.97 7.495 14.97 7.495 18 8 C15 10 15 10 13 10 C13 12.31 13 14.62 13 17 C14.98 17.66 16.96 18.32 19 19 C19 19.33 19 19.66 19 20 C17.824375 20.2165625 17.824375 20.2165625 16.625 20.4375 C14.03578982 20.87798925 14.03578982 20.87798925 12 22 C12 23.98 12 25.96 12 28 C11.34 28 10.68 28 10 28 C9.896875 27.05125 9.79375 26.1025 9.6875 25.125 C9.31460705 21.70892499 9.31460705 21.70892499 6 20 C7.32 20 8.64 20 10 20 C10 17.69 10 15.38 10 13 C8.68 13 7.36 13 6 13 C6 13.66 6 14.32 6 15 C5.34 15 4.68 15 4 15 C4 14.34 4 13.68 4 13 C3.01 13 2.02 13 1 13 C0.67 14.65 0.34 16.3 0 18 C-0.99 18 -1.98 18 -3 18 C-2.67 17.67 -2.34 17.34 -2 17 C-2 15.865625 -2 14.73125 -2 13.5625 C-2 10 -2 10 -1 8 C-0.77721336 6.63027471 -0.5931895 5.25396412 -0.4375 3.875 C-0.2209375 1.956875 -0.2209375 1.956875 0 0 Z " fill="#A0B4BD" transform="translate(295,186)"/>
<path d="M0 0 C1.50433594 0.01353516 1.50433594 0.01353516 3.0390625 0.02734375 C3.80992187 0.03894531 4.58078125 0.05054688 5.375 0.0625 C5.375 0.7225 5.375 1.3825 5.375 2.0625 C4.71113281 2.16046875 4.04726563 2.2584375 3.36328125 2.359375 C-1.92568157 3.25502418 -5.86350999 3.9483703 -9.625 8.0625 C-11.87871975 12.03333957 -12.02056434 15.55306654 -11.625 20.0625 C-9.97738431 24.26392002 -7.9764118 27.05778597 -4.625 30.0625 C-6.25 30.875 -6.25 30.875 -8.625 31.0625 C-11.75 28.6875 -11.75 28.6875 -14.625 26.0625 C-15.285 25.7325 -15.945 25.4025 -16.625 25.0625 C-17.72848459 21.98107132 -17.73023224 19.06015038 -17.6875 15.8125 C-17.67847656 14.92046875 -17.66945312 14.0284375 -17.66015625 13.109375 C-17.64855469 12.43390625 -17.63695312 11.7584375 -17.625 11.0625 C-16.965 11.0625 -16.305 11.0625 -15.625 11.0625 C-15.48384766 10.17111328 -15.48384766 10.17111328 -15.33984375 9.26171875 C-14.46527084 6.57109279 -13.36946617 5.63962545 -11.1875 3.875 C-10.57003906 3.36582031 -9.95257813 2.85664063 -9.31640625 2.33203125 C-6.10641553 -0.07731513 -3.96625082 -0.0461192 0 0 Z M-16.625 17.0625 C-15.625 21.0625 -15.625 21.0625 -15.625 21.0625 Z M-15.625 22.0625 C-14.625 24.0625 -14.625 24.0625 -14.625 24.0625 Z " fill="#616E74" transform="translate(265.625,204.9375)"/>
<path d="M0 0 C0.66 0 1.32 0 2 0 C5.07475577 3.93568738 6.01865067 8.07622376 6 13 C4.67346939 19.32653061 4.67346939 19.32653061 2 22 C-1 22.25 -1 22.25 -4 22 C-4.66 21.34 -5.32 20.68 -6 20 C-5.79059427 15.49777684 -4.25715123 12.6030933 -1.921875 8.8125 C-0.4522176 5.92300409 -0.26205115 3.21012657 0 0 Z " fill="#AACBDD" transform="translate(153,104)"/>
<path d="M0 0 C1.19799449 4.14659373 0.8896192 7.99369047 0.5625 12.25 C0.51029297 12.99507812 0.45808594 13.74015625 0.40429688 14.5078125 C0.2751783 16.33894861 0.13834886 18.16953813 0 20 C-1.65 19.67 -3.3 19.34 -5 19 C-5.74957157 22.47147842 -5.74957157 22.47147842 -6 26 C-4.68 26.33 -3.36 26.66 -2 27 C-2.33 27.99 -2.66 28.98 -3 30 C-1.68 30.99 -0.36 31.98 1 33 C1.99 32.505 1.99 32.505 3 32 C2.67 32.556875 2.34 33.11375 2 33.6875 C0.8690399 36.30284522 0.84337026 38.1806646 1 41 C0.74476563 40.4328125 0.48953125 39.865625 0.2265625 39.28125 C-1.13757297 36.74413181 -2.81312808 34.73687892 -4.625 32.5 C-8.02944405 27.6324301 -8.98075584 24.0152615 -8.63671875 18.10546875 C-7.25939426 11.38784317 -3.7655223 5.64828345 0 0 Z " fill="#A9C7D8" transform="translate(145,138)"/>
<path d="M0 0 C0 0.66 0 1.32 0 2 C-0.66 2 -1.32 2 -2 2 C-2.33 2.99 -2.66 3.98 -3 5 C-34.68 4.505 -34.68 4.505 -67 4 C-67 4.66 -67 5.32 -67 6 C-70 6 -70 6 -71.5625 4.625 C-72.036875 4.08875 -72.51125 3.5525 -73 3 C-73.66 2.34 -74.32 1.68 -75 1 C-73.70636536 1.24300591 -73.70636536 1.24300591 -72.38659668 1.49092102 C-69.13576338 1.97959182 -66.09842442 2.13336727 -62.81445312 2.14526367 C-61.01228333 2.15483345 -61.01228333 2.15483345 -59.17370605 2.16459656 C-57.24694031 2.16626579 -57.24694031 2.16626579 -55.28125 2.16796875 C-53.93656377 2.1711863 -52.59187789 2.17455074 -51.24719238 2.17805481 C-48.4364338 2.18402378 -45.62570587 2.18589691 -42.81494141 2.18530273 C-39.22393041 2.185201 -35.63311664 2.19887443 -32.0421524 2.21607494 C-29.26767076 2.22722211 -26.49323649 2.22922114 -23.71873474 2.22869301 C-21.7545729 2.23043694 -19.79042583 2.24125574 -17.82629395 2.25224304 C-16.62484741 2.24916641 -15.42340088 2.24608978 -14.18554688 2.24291992 C-13.13330933 2.24434494 -12.08107178 2.24576996 -10.99694824 2.24723816 C-7.16245847 1.93090564 -3.77743989 0 0 0 Z " fill="#66757D" transform="translate(277,175)"/>
<path d="M0 0 C0.33 0 0.66 0 1 0 C1.09796875 0.9178125 1.1959375 1.835625 1.296875 2.78125 C2.35691533 11.4808913 3.37902544 18.75628895 10 25 C9.67 25.66 9.34 26.32 9 27 C7.68 26.34 6.36 25.68 5 25 C4.67 28.3 4.34 31.6 4 35 C-1.63012612 23.73974777 -3.21149264 12.175746 0 0 Z " fill="#A0BBCA" transform="translate(261,90)"/>
<path d="M0 0 C3.86981405 3.22484504 5.24025167 6.01942759 6 11 C4.8125 14.4375 4.8125 14.4375 3 18 C2.41942713 19.47216691 1.85667166 20.95149277 1.3125 22.4375 C0.879375 23.613125 0.44625 24.78875 0 26 C-2.55040587 23.44959413 -2.99806084 22.01874523 -3.375 18.375 C-3.2311541 14.1075717 -2.03783208 10.31369698 -0.65625 6.296875 C0.18314742 3.75711504 0.18314742 3.75711504 0 0 Z " fill="#B0D1E3" transform="translate(256,65)"/>
<path d="M0 0 C0.66 0 1.32 0 2 0 C1.96519531 1.33804688 1.96519531 1.33804688 1.9296875 2.703125 C1.91164062 3.87359375 1.89359375 5.0440625 1.875 6.25 C1.85179687 7.41015625 1.82859375 8.5703125 1.8046875 9.765625 C1.9896051 12.82786046 2.39176977 14.44202751 4 17 C2 18 2 18 0 18 C-0.66 20.31 -1.32 22.62 -2 25 C-2.33 25 -2.66 25 -3 25 C-3.61438921 22.29548279 -4.19158517 19.59112974 -4.75 16.875 C-4.92660156 16.11445312 -5.10320312 15.35390625 -5.28515625 14.5703125 C-6.13774444 10.27030248 -6.31025792 8.59218794 -4.203125 4.5703125 C-2 2 -2 2 0 0 Z " fill="#95AEBC" transform="translate(246,78)"/>
<path d="M0 0 C0.66 0 1.32 0 2 0 C3.4536514 6.6625689 2.7141502 11.18759611 -1 17 C-4 19 -4 19 -8 19 C-8 16.03 -8 13.06 -8 10 C-4.535 9.505 -4.535 9.505 -1 9 C-0.67 6.03 -0.34 3.06 0 0 Z " fill="#C6DDE7" transform="translate(224,217)"/>
<path d="M0 0 C1.02721759 3.08165276 1.37840055 5.85349093 1.71875 9.0625 C1.97252769 11.21202316 1.97252769 11.21202316 3 14 C2.01 14 1.02 14 0 14 C0.350625 14.928125 0.70125 15.85625 1.0625 16.8125 C2 20 2 20 1 23 C-5.41006552 14.75848719 -5.41006552 14.75848719 -5.6875 9.8125 C-4.82419905 5.0251038 -3.38886489 3.38886489 0 0 Z " fill="#8AA1AC" transform="translate(225,54)"/>
<path d="M0 0 C0.33 0 0.66 0 1 0 C1 1.98 1 3.96 1 6 C2.299375 5.87625 3.59875 5.7525 4.9375 5.625 C5.66839844 5.55539063 6.39929688 5.48578125 7.15234375 5.4140625 C7.76207031 5.27742187 8.37179688 5.14078125 9 5 C9.33 4.34 9.66 3.68 10 3 C10.66 3 11.32 3 12 3 C13.125 6.75 13.125 6.75 12 9 C12.66 9 13.32 9 14 9 C14.08086147 10.79093191 14.13912702 12.58289628 14.1875 14.375 C14.22230469 15.37273437 14.25710937 16.37046875 14.29296875 17.3984375 C14.14794922 18.68621094 14.14794922 18.68621094 14 20 C13.01 20.66 12.02 21.32 11 22 C9.75974826 18.27924477 10.39322156 15.84293009 11 12 C11 10.68 11 9.36 11 8 C10.34 8 9.68 8 9 8 C9.01160156 8.63808594 9.02320313 9.27617187 9.03515625 9.93359375 C9.04417969 10.75988281 9.05320313 11.58617187 9.0625 12.4375 C9.07410156 13.26121094 9.08570313 14.08492187 9.09765625 14.93359375 C9 17 9 17 8 18 C5.66702567 18.04092937 3.33294775 18.04241723 1 18 C1 17.67 1 17.34 1 17 C2.98 16.67 4.96 16.34 7 16 C7 13.69 7 11.38 7 9 C4.69 8.34 2.38 7.68 0 7 C0 4.69 0 2.38 0 0 Z M12 16 C13 18 13 18 13 18 Z " fill="#6F7E85" transform="translate(215,209)"/>
<path d="M0 0 C0.33 0 0.66 0 1 0 C1 2.97 1 5.94 1 9 C1.99 9.33 2.98 9.66 4 10 C0.7761479 12.89535533 -1.32640704 13.38781228 -5.625 13.3125 C-6.58664063 13.30863281 -7.54828125 13.30476562 -8.5390625 13.30078125 C-11 13 -11 13 -13 11 C-12.34 10.34 -11.68 9.68 -11 9 C-11.33 8.34 -11.66 7.68 -12 7 C-11.34 7 -10.68 7 -10 7 C-10 5.02 -10 3.04 -10 1 C-9.67 1 -9.34 1 -9 1 C-9 2.98 -9 4.96 -9 7 C-6.36 6.67 -3.72 6.34 -1 6 C-0.67 4.02 -0.34 2.04 0 0 Z " fill="#97A9B2" transform="translate(215,227)"/>
<path d="M0 0 C4.83256305 0.41421969 6.82679218 2.46413986 10 6 C9.67 6.66 9.34 7.32 9 8 C8.34 8 7.68 8 7 8 C6.01 10.64 5.02 13.28 4 16 C4.66 16 5.32 16 6 16 C5.1875 17.9375 5.1875 17.9375 4 20 C3.01 20.33 2.02 20.66 1 21 C1.33 20.01 1.66 19.02 2 18 C2.23625511 11.85736725 1.65981388 5.92790673 0 0 Z " fill="#AACCDE" transform="translate(225,68)"/>
<path d="M0 0 C1.32 0 2.64 0 4 0 C4.33 2.31 4.66 4.62 5 7 C2.69 7 0.38 7 -2 7 C-2 10.63 -2 14.26 -2 18 C-2.99 17.67 -3.98 17.34 -5 17 C-5.07654536 12.48382401 -5.10228696 8.40914783 -4 4 C-3.34 4 -2.68 4 -2 4 C-2 3.34 -2 2.68 -2 2 C-1.34 2 -0.68 2 0 2 C0 1.34 0 0.68 0 0 Z " fill="#C4DBE5" transform="translate(199,209)"/>
<path d="M0 0 C0 0.66 0 1.32 0 2 C-0.71027344 2.06058594 -1.42054688 2.12117187 -2.15234375 2.18359375 C-3.07144531 2.26738281 -3.99054688 2.35117188 -4.9375 2.4375 C-6.31228516 2.55931641 -6.31228516 2.55931641 -7.71484375 2.68359375 C-9.96159732 2.76044976 -9.96159732 2.76044976 -11 4 C-8.69 4.33 -6.38 4.66 -4 5 C-4 5.33 -4 5.66 -4 6 C-6.97 6 -9.94 6 -13 6 C-13 7.98 -13 9.96 -13 12 C-13.99 12.495 -13.99 12.495 -15 13 C-15.4021875 11.5459375 -15.4021875 11.5459375 -15.8125 10.0625 C-16.204375 9.051875 -16.59625 8.04125 -17 7 C-17.99 6.67 -18.98 6.34 -20 6 C-20 6.66 -20 7.32 -20 8 C-20.66 8 -21.32 8 -22 8 C-22 8.66 -22 9.32 -22 10 C-22.66 9.67 -23.32 9.34 -24 9 C-16.97013768 1.34985571 -10.15526826 -0.31735213 0 0 Z " fill="#829299" transform="translate(219,203)"/>
<path d="M0 0 C3.63 0 7.26 0 11 0 C11 0.66 11 1.32 11 2 C11.9075 2.268125 12.815 2.53625 13.75 2.8125 C16.73497101 3.90316248 18.54112724 5.06802855 21 7 C21.66 7 22.32 7 23 7 C23.33 8.98 23.66 10.96 24 13 C23.01 13 22.02 13 21 13 C20.67 12.01 20.34 11.02 20 10 C19.34 10.66 18.68 11.32 18 12 C17.443125 11.21625 16.88625 10.4325 16.3125 9.625 C13.92331435 6.91295142 12.39926587 6.03866457 9 5 C9.33 4.01 9.66 3.02 10 2 C7.03 2 4.06 2 1 2 C0.67 1.34 0.34 0.68 0 0 Z " fill="#76848B" transform="translate(261,203)"/>
<path d="M0 0 C6.3 6.3 6.3 6.3 8 11 C7.5 13.25 7.5 13.25 6 15 C4.35 15.66 2.7 16.32 1 17 C0.67 11.39 0.34 5.78 0 0 Z " fill="#95AFBD" transform="translate(332,141)"/>
<path d="M0 0 C0.33 0 0.66 0 1 0 C0.98839844 0.73605469 0.97679687 1.47210938 0.96484375 2.23046875 C0.95582031 3.20628906 0.94679687 4.18210937 0.9375 5.1875 C0.92589844 6.15042969 0.91429687 7.11335938 0.90234375 8.10546875 C0.99513378 10.85576513 1.37888315 13.32479591 2 16 C0.35 16 -1.3 16 -3 16 C-3.33 17.32 -3.66 18.64 -4 20 C-4.68886437 6.03136144 -4.68886437 6.03136144 -2.0625 2.125 C-1.0415625 1.073125 -1.0415625 1.073125 0 0 Z " fill="#9AB0BB" transform="translate(215,80)"/>
<path d="M0 0 C0.99 0 1.98 0 3 0 C3 0.66 3 1.32 3 2 C3.66 2 4.32 2 5 2 C5 1.34 5 0.68 5 0 C6.32 0 7.64 0 9 0 C10.125 4.75 10.125 4.75 9 7 C5.7 7 2.4 7 -1 7 C-1.33 6.34 -1.66 5.68 -2 5 C-1.0625 2.375 -1.0625 2.375 0 0 Z " fill="#CDE6F2" transform="translate(296,199)"/>
<path d="M0 0 C-0.31616908 6.16529701 -3.49215061 10.17268433 -7 15 C-9.27795022 12.72204978 -10.05219877 11.06212707 -11 8 C-10.75 5.75 -10.75 5.75 -10 4 C-9.34 3.67 -8.68 3.34 -8 3 C-8.33 4.98 -8.66 6.96 -9 9 C-8.34 8.67 -7.68 8.34 -7 8 C-7 7.34 -7 6.68 -7 6 C-5.35 5.34 -3.7 4.68 -2 4 C-2 3.34 -2 2.68 -2 2 C-2.66 1.67 -3.32 1.34 -4 1 C-2 0 -2 0 0 0 Z " fill="#9DB6C4" transform="translate(342,189)"/>
<path d="M0 0 C2.51083114 1.25541557 2.87125446 2.50063488 4 5 C4.66 4.67 5.32 4.34 6 4 C6.05416188 5.60379341 6.09286638 7.20811406 6.125 8.8125 C6.14820313 9.70582031 6.17140625 10.59914062 6.1953125 11.51953125 C6 14 6 14 4 17 C3.01 17 2.02 17 1 17 C0.67 11.39 0.34 5.78 0 0 Z " fill="#79888F" transform="translate(280,212)"/>
<path d="M0 0 C1.49080078 0.02707031 1.49080078 0.02707031 3.01171875 0.0546875 C3.77097656 0.07789063 4.53023438 0.10109375 5.3125 0.125 C5.3125 0.785 5.3125 1.445 5.3125 2.125 C4.64863281 2.22296875 3.98476563 2.3209375 3.30078125 2.421875 C-2.07766365 3.33267735 -5.70883525 4.14633525 -9.6875 8.125 C-10.285625 8.7025 -10.88375 9.28 -11.5 9.875 C-12.0878125 10.49375 -12.0878125 10.49375 -12.6875 11.125 C-13.5 9.4375 -13.5 9.4375 -13.6875 7.125 C-9.48614323 2.22341711 -6.48234915 -0.15252586 0 0 Z " fill="#99AAB2" transform="translate(265.6875,204.875)"/>
<path d="M0 0 C0.33 0 0.66 0 1 0 C1 1.98 1 3.96 1 6 C0.01 6.33 -0.98 6.66 -2 7 C-2 7.66 -2 8.32 -2 9 C-3.65 9.66 -5.3 10.32 -7 11 C-6.67 11.99 -6.34 12.98 -6 14 C-6.99 14 -7.98 14 -9 14 C-9 12.35 -9 10.7 -9 9 C-9.99 9.495 -9.99 9.495 -11 10 C-10.9375 8.1875 -10.9375 8.1875 -10 6 C-4.10714286 3 -4.10714286 3 -1 3 C-0.67 2.01 -0.34 1.02 0 0 Z " fill="#B3D5E8" transform="translate(342,184)"/>
<path d="M0 0 C1.45823212 -0.0270043 2.91660675 -0.04639787 4.375 -0.0625 C5.18710937 -0.07410156 5.99921875 -0.08570313 6.8359375 -0.09765625 C9 0 9 0 11 1 C11 1.66 11 2.32 11 3 C21.53773666 2.35054056 21.53773666 2.35054056 32 1 C28.36883215 4.63116785 23.18074334 4.90160472 18.25 5.3125 C12.35959305 5.15995958 4.25159312 4.25159312 0 0 Z " fill="#82939A" transform="translate(298,281)"/>
<path d="M0 0 C3.85487309 3.21239424 5.12062285 6.07548795 6 11 C5.125 13.4375 5.125 13.4375 4 15 C3.67 13.68 3.34 12.36 3 11 C1.35 11.66 -0.3 12.32 -2 13 C-1.855625 12.31292969 -1.71125 11.62585938 -1.5625 10.91796875 C-1.376875 10.01691406 -1.19125 9.11585937 -1 8.1875 C-0.814375 7.29417969 -0.62875 6.40085937 -0.4375 5.48046875 C0.08684843 2.92739307 0.08684843 2.92739307 0 0 Z " fill="#9FB9C6" transform="translate(256,65)"/>
<path d="M0 0 C0.66 0.66 1.32 1.32 2 2 C0.865625 1.896875 -0.26875 1.79375 -1.4375 1.6875 C-6.8648024 1.67791113 -10.53051635 4.16452113 -15 7 C-17.30907662 8.4135412 -19.60542775 9.72941064 -22 11 C-22.66 10.67 -23.32 10.34 -24 10 C-16.56339233 3.7167551 -10.13497653 -1.01349765 0 0 Z " fill="#536067" transform="translate(301,164)"/>
<path d="M0 0 C0.94875 0.04125 1.8975 0.0825 2.875 0.125 C2.875 0.785 2.875 1.445 2.875 2.125 C3.535 2.125 4.195 2.125 4.875 2.125 C4.545 3.115 4.215 4.105 3.875 5.125 C3.215 5.125 2.555 5.125 1.875 5.125 C-0.15419843 5.38223969 -0.15419843 5.38223969 -2.125 6.125 C-3.115 7.61 -3.115 7.61 -4.125 9.125 C-4.785 9.125 -5.445 9.125 -6.125 9.125 C-5.13392857 0.20535714 -5.13392857 0.20535714 0 0 Z " fill="#B5DCF2" transform="translate(327.125,162.875)"/>
<path d="M0 0 C2.1519437 3.22791555 2.20086443 4.28400809 2 8 C-2.61073111 9.29676812 -6.33840089 8.71109139 -11 8 C-10.375 6.0625 -10.375 6.0625 -9 4 C-5.875 3.25 -5.875 3.25 -3 3 C-2.67 3.66 -2.34 4.32 -2 5 C-1.34 4.67 -0.68 4.34 0 4 C-0.33 3.34 -0.66 2.68 -1 2 C-0.67 1.34 -0.34 0.68 0 0 Z " fill="#B8D8E9" transform="translate(188,150)"/>
<path d="M0 0 C0.763125 0.20625 1.52625 0.4125 2.3125 0.625 C2.3125 1.285 2.3125 1.945 2.3125 2.625 C8.5825 2.295 14.8525 1.965 21.3125 1.625 C16.26970167 4.98686555 10.27419144 5.25035225 4.3125 4.625 C0.91858472 3.79106653 -2.38386973 2.76231534 -5.6875 1.625 C-2.6875 -0.375 -2.6875 -0.375 0 0 Z " fill="#83939B" transform="translate(152.6875,281.375)"/>
<path d="M0 0 C2.72156351 3.48604764 4.50379538 6.81062708 6 11 C5.6875 13.4375 5.6875 13.4375 5 15 C4.01 14.67 3.02 14.34 2 14 C1.01 14.66 0.02 15.32 -1 16 C-0.83628906 15.29488281 -0.67257812 14.58976563 -0.50390625 13.86328125 C0.01699824 10.90341312 0.09866732 8.18938727 0.0625 5.1875 C0.05347656 4.21167969 0.04445313 3.23585937 0.03515625 2.23046875 C0.02355469 1.49441406 0.01195312 0.75835937 0 0 Z " fill="#93A5AD" transform="translate(277,134)"/>
<path d="M0 0 C0.66 0 1.32 0 2 0 C5.068877 3.92816256 6.03712339 8.08115029 6 13 C5.53469962 15.46609202 4.84199 17.62261646 4 20 C3.67 20 3.34 20 3 20 C3 15.71 3 11.42 3 7 C1.02 7.99 1.02 7.99 -1 9 C-0.67 6.03 -0.34 3.06 0 0 Z " fill="#8496A0" transform="translate(153,104)"/>
<path d="M0 0 C0.2475 0.639375 0.495 1.27875 0.75 1.9375 C1.81562433 4.18741541 1.81562433 4.18741541 4.125 4.75 C4.74375 4.8325 5.3625 4.915 6 5 C5.67 5.99 5.34 6.98 5 8 C6.32 8.99 7.64 9.98 9 11 C9.66 10.67 10.32 10.34 11 10 C10.505 10.8353125 10.505 10.8353125 10 11.6875 C8.8690399 14.30284522 8.84337026 16.1806646 9 19 C8.74476563 18.44183594 8.48953125 17.88367188 8.2265625 17.30859375 C6.35181787 13.7800139 3.8692531 10.71511582 1.4609375 7.53515625 C-0.15369347 4.73329663 -0.30681236 3.17607609 0 0 Z " fill="#93ABB8" transform="translate(137,160)"/>
<path d="M0 0 C0.66 0.33 1.32 0.66 2 1 C2.99 0.67 3.98 0.34 5 0 C5.625 1.8125 5.625 1.8125 6 4 C5.01 5.485 5.01 5.485 4 7 C4.66 7.33 5.32 7.66 6 8 C6.33 8.66 6.66 9.32 7 10 C6.34 10.66 5.68 11.32 5 12 C4.01941648 10.54261898 3.04057868 9.08406325 2.0625 7.625 C1.51722656 6.81289062 0.97195313 6.00078125 0.41015625 5.1640625 C-1 3 -1 3 -2 1 C-1.34 0.67 -0.68 0.34 0 0 Z M7 3 C7.99 3.495 7.99 3.495 9 4 C9 4.66 9 5.32 9 6 C8.34 6 7.68 6 7 6 C7 5.01 7 4.02 7 3 Z " fill="#9DBBCA" transform="translate(317,165)"/>
<path d="M0 0 C1.10370043 3.3111013 0.92673641 5.24748949 0.5625 8.6875 C0.46066406 9.68136719 0.35882813 10.67523438 0.25390625 11.69921875 C0.12822266 12.83810547 0.12822266 12.83810547 0 14 C-0.99 14 -1.98 14 -3 14 C-4.19754817 10.40735548 -4.33094958 7.77282526 -4 4 C-2 1.5625 -2 1.5625 0 0 Z " fill="#A1BDCC" transform="translate(225,54)"/>
<path d="M0 0 C0.33 0 0.66 0 1 0 C1.66 1.98 2.32 3.96 3 6 C4.65 6.33 6.3 6.66 8 7 C8 7.33 8 7.66 8 8 C7.21625 8.144375 6.4325 8.28875 5.625 8.4375 C3.03578982 8.87798925 3.03578982 8.87798925 1 10 C1 11.98 1 13.96 1 16 C0.34 16 -0.32 16 -1 16 C-1.103125 15.05125 -1.20625 14.1025 -1.3125 13.125 C-1.68539295 9.70892499 -1.68539295 9.70892499 -5 8 C-3.68 8 -2.36 8 -1 8 C-0.67 5.36 -0.34 2.72 0 0 Z " fill="#9AACB4" transform="translate(306,198)"/>
<path d="M0 0 C1.98 0.66 3.96 1.32 6 2 C4.125 6.75 4.125 6.75 3 9 C1.68 8.67 0.36 8.34 -1 8 C-1.625 5.125 -1.625 5.125 -2 2 C-1.34 1.34 -0.68 0.68 0 0 Z " fill="#B4DBF1" transform="translate(140,156)"/>
<path d="M0 0 C-0.59950296 3.68266103 -1.24758891 7.34543185 -2 11 C-3.65 10.01 -5.3 9.02 -7 8 C-4.18918919 0 -4.18918919 0 0 0 Z " fill="#A2BDCB" transform="translate(248,78)"/>
<path d="M0 0 C-1 3 -1 3 -3 5 C-5.6015625 5.1953125 -5.6015625 5.1953125 -8.625 5.125 C-10.12933594 5.09792969 -10.12933594 5.09792969 -11.6640625 5.0703125 C-12.43492187 5.04710937 -13.20578125 5.02390625 -14 5 C-13.34 4.67 -12.68 4.34 -12 4 C-12.33 3.01 -12.66 2.02 -13 1 C-11.20843648 0.83222817 -9.4167455 0.66581706 -7.625 0.5 C-6.62726563 0.4071875 -5.62953125 0.314375 -4.6015625 0.21875 C-2 0 -2 0 0 0 Z " fill="#829199" transform="translate(275,235)"/>
<path d="M0 0 C0.33 0.99 0.66 1.98 1 3 C3.00016466 4.20882096 3.00016466 4.20882096 5 5 C4.01 5.495 4.01 5.495 3 6 C2.01 5.67 1.02 5.34 0 5 C-0.33 5.66 -0.66 6.32 -1 7 C-1.33 6.01 -1.66 5.02 -2 4 C-5.3 3.67 -8.6 3.34 -12 3 C-7.09396701 -0.67952474 -5.82490317 -0.29124516 0 0 Z " fill="#C6DDE8" transform="translate(217,205)"/>
<path d="M0 0 C0.33 0 0.66 0 1 0 C1.33 3.63 1.66 7.26 2 11 C1.67 11 1.34 11 1 11 C1 15.62 1 20.24 1 25 C-3.14648556 16.70702888 -2.02568905 8.80588792 0 0 Z " fill="#879AA4" transform="translate(261,90)"/>
<path d="M0 0 C1.09960353 4.0318796 1.93377068 8.13245863 0 12 C-0.66 12 -1.32 12 -2 12 C-2.66 14.97 -3.32 17.94 -4 21 C-4.66 21 -5.32 21 -6 21 C-4.55613874 13.78069368 -2.42211826 6.94889267 0 0 Z " fill="#8A9AA2" transform="translate(150,200)"/>
<path d="M0 0 C4.79943196 4.11379882 7.87365811 9.02599182 10 15 C9.67 15.99 9.34 16.98 9 18 C8.66226562 17.36191406 8.32453125 16.72382813 7.9765625 16.06640625 C7.53054688 15.24011719 7.08453125 14.41382813 6.625 13.5625 C5.96371094 12.32693359 5.96371094 12.32693359 5.2890625 11.06640625 C4.16581441 8.86533422 4.16581441 8.86533422 2 8 C1.3671875 6.15234375 1.3671875 6.15234375 0.875 3.9375 C0.70742188 3.20402344 0.53984375 2.47054687 0.3671875 1.71484375 C0.24601562 1.14894531 0.12484375 0.58304688 0 0 Z " fill="#556167" transform="translate(313,174)"/>
<path d="M0 0 C0.66 0.33 1.32 0.66 2 1 C1.54917531 2.46067199 1.08906463 3.91848032 0.625 5.375 C0.36976563 6.18710938 0.11453125 6.99921875 -0.1484375 7.8359375 C-1 10 -1 10 -3 12 C-4.32 10.35 -5.64 8.7 -7 7 C-5.02 6.34 -3.04 5.68 -1 5 C-0.67 3.35 -0.34 1.7 0 0 Z " fill="#8499A4" transform="translate(149,187)"/>
<path d="M0 0 C2.91589609 4.37384413 4.30254716 7.70542471 4 13 C3.01 13.33 2.02 13.66 1 14 C-0.04976964 10.85069107 -0.10131595 8.61185544 -0.0625 5.3125 C-0.05347656 4.31863281 -0.04445313 3.32476562 -0.03515625 2.30078125 C-0.02355469 1.54152344 -0.01195312 0.78226562 0 0 Z " fill="#ABC8D8" transform="translate(261,98)"/>
<path d="M0 0 C0 0.66 0 1.32 0 2 C-0.66 2 -1.32 2 -2 2 C-2.33 2.99 -2.66 3.98 -3 5 C-8.61 4.67 -14.22 4.34 -20 4 C-20 3.67 -20 3.34 -20 3 C-18.86820312 2.86722656 -17.73640625 2.73445312 -16.5703125 2.59765625 C-15.08851821 2.4194658 -13.60674864 2.24106971 -12.125 2.0625 C-11.00544922 1.93198242 -11.00544922 1.93198242 -9.86328125 1.79882812 C-6.51424787 1.39151325 -3.23058195 0 0 0 Z " fill="#7B8B92" transform="translate(277,175)"/>
<path d="M0 0 C0.99 0.99 1.98 1.98 3 3 C2.67 3.99 2.34 4.98 2 6 C1.01 6.33 0.02 6.66 -1 7 C-4.0109362 4.9927092 -4.63016497 4.16115776 -6 1 C-3.03 1.495 -3.03 1.495 0 2 C0 1.34 0 0.68 0 0 Z " fill="#B4DCF2" transform="translate(319,160)"/>
<path d="M0 0 C3 3 6 6 9 9 C7.3125 9.8125 7.3125 9.8125 5 10 C2.25 7.875 2.25 7.875 0 5 C-0.3125 2.1875 -0.3125 2.1875 0 0 Z " fill="#9AABB3" transform="translate(252,226)"/>
<path d="M0 0 C1.32 0 2.64 0 4 0 C4.33 1.98 4.66 3.96 5 6 C3.02 6 1.04 6 -1 6 C-0.67 4.02 -0.34 2.04 0 0 Z " fill="#CEE9F4" transform="translate(199,209)"/>
<path d="M0 0 C0.33 0 0.66 0 1 0 C1.66 4.95 2.32 9.9 3 15 C2.34 15 1.68 15 1 15 C0.67 12.36 0.34 9.72 0 7 C-0.99 7 -1.98 7 -3 7 C-1.125 1.125 -1.125 1.125 0 0 Z " fill="#85979F" transform="translate(199,132)"/>
<path d="M0 0 C0.33 0 0.66 0 1 0 C0.67 2.31 0.34 4.62 0 7 C-0.66 7 -1.32 7 -2 7 C-2 6.34 -2 5.68 -2 5 C-4.64 5.66 -7.28 6.32 -10 7 C-10.33 6.01 -10.66 5.02 -11 4 C-10.34 3.01 -9.68 2.02 -9 1 C-9 1.66 -9 2.32 -9 3 C-6.36 3 -3.72 3 -1 3 C-0.67 2.01 -0.34 1.02 0 0 Z " fill="#8AA2AE" transform="translate(332,158)"/>
<path d="M0 0 C0.99 0 1.98 0 3 0 C2.67 1.65 2.34 3.3 2 5 C2.99 4.67 3.98 4.34 5 4 C4.67 5.98 4.34 7.96 4 10 C3.01 10 2.02 10 1 10 C0.37542727 6.56484998 0 3.50935186 0 0 Z " fill="#B5DDF3" transform="translate(265,114)"/>
<path d="M0 0 C3.6 3.6 3.6 3.6 4 7 C3.5625 9.75 3.5625 9.75 3 12 C3.66 12.33 4.32 12.66 5 13 C4.01 13.66 3.02 14.32 2 15 C1.34 10.05 0.68 5.1 0 0 Z " fill="#899EA8" transform="translate(332,141)"/>
<path d="M0 0 C0 1.79178779 -0.01536401 3.58383232 -0.0625 5.375 C0.00074389 8.0312432 0.40907083 10.41468487 1 13 C0.01 13.33 -0.98 13.66 -2 14 C-3.34152439 9.97542684 -3.27060777 6.1944205 -3 2 C-2.01 1.34 -1.02 0.68 0 0 Z " fill="#B5DAEF" transform="translate(148,171)"/>
<path d="M0 0 C1.65 0.33 3.3 0.66 5 1 C1.98112756 4.48331435 -0.56909529 5.79157144 -5 7 C-5 6.01 -5 5.02 -5 4 C-3.68 4 -2.36 4 -1 4 C-0.67 2.68 -0.34 1.36 0 0 Z " fill="#8EA1A9" transform="translate(180,276)"/>
<path d="M0 0 C1.32 0 2.64 0 4 0 C4.33 0.66 4.66 1.32 5 2 C6.2065625 2.1546875 6.2065625 2.1546875 7.4375 2.3125 C8.283125 2.539375 9.12875 2.76625 10 3 C11.3125 5.5625 11.3125 5.5625 12 8 C7.44328408 6.48109469 3.68276708 4.04597738 0 1 C0 0.67 0 0.34 0 0 Z " fill="#87979E" transform="translate(286,273)"/>
<path d="M0 0 C1.65 0.33 3.3 0.66 5 1 C5.33 2.98 5.66 4.96 6 7 C5.01 7 4.02 7 3 7 C2.67 6.01 2.34 5.02 2 4 C1.34 4.66 0.68 5.32 0 6 C-0.66 4.68 -1.32 3.36 -2 2 C-1.34 2 -0.68 2 0 2 C0 1.34 0 0.68 0 0 Z " fill="#5C6A71" transform="translate(279,209)"/>
<path d="M0 0 C0.66 0.33 1.32 0.66 2 1 C2.625 3.0625 2.625 3.0625 3 5 C2.21625 5.61875 1.4325 6.2375 0.625 6.875 C-1.96837647 8.89858661 -1.96837647 8.89858661 -4 11 C-4 9.35 -4 7.7 -4 6 C-3.34 6 -2.68 6 -2 6 C-2 5.34 -2 4.68 -2 4 C-1.34 4 -0.68 4 0 4 C0 2.68 0 1.36 0 0 Z " fill="#ACC0C9" transform="translate(255,201)"/>
<path d="M0 0 C3.11257569 0 5.10765685 0.17361624 8 1 C6.02 1.99 6.02 1.99 4 3 C4 3.66 4 4.32 4 5 C2.02 5.66 0.04 6.32 -2 7 C-1.34 4.69 -0.68 2.38 0 0 Z " fill="#CFE9F5" transform="translate(191,204)"/>
<path d="M0 0 C0.33 0.99 0.66 1.98 1 3 C1.99 3.33 2.98 3.66 4 4 C3.01 5.485 3.01 5.485 2 7 C-0.86724686 6.42655063 -1.8614515 6.1385485 -4 4 C-2.68 2.68 -1.36 1.36 0 0 Z " fill="#B4DCF2" transform="translate(287,153)"/>
<path d="M0 0 C0.33 0 0.66 0 1 0 C1.33 1.65 1.66 3.3 2 5 C2.99 4.67 3.98 4.34 5 4 C4.34 6.64 3.68 9.28 3 12 C1.09598862 10.09598862 0.06479561 8.66574314 -0.19921875 5.953125 C-0.1886578 3.96766727 -0.09915043 1.9830086 0 0 Z " fill="#91A3AC" transform="translate(253,79)"/>
<path d="M0 0 C0.66 0 1.32 0 2 0 C2.66 1.98 3.32 3.96 4 6 C2.02 6.99 2.02 6.99 0 8 C-0.38063221 5.6739143 -0.71269945 3.33944736 -1 1 C-0.67 0.67 -0.34 0.34 0 0 Z " fill="#B5DCF1" transform="translate(330,182)"/>
<path d="M0 0 C5.28 0.66 10.56 1.32 16 2 C16 2.33 16 2.66 16 3 C13.36 3 10.72 3 8 3 C8 3.66 8 4.32 8 5 C5 5 5 5 3.4375 3.625 C2.963125 3.08875 2.48875 2.5525 2 2 C1.34 1.34 0.68 0.68 0 0 Z " fill="#707F86" transform="translate(202,176)"/>
<path d="M0 0 C3.08669204 3.08669204 3.44855089 3.91927658 4 8 C3.01 8 2.02 8 1 8 C1 9.65 1 11.3 1 13 C0.67 13 0.34 13 0 13 C0 8.71 0 4.42 0 0 Z " fill="#829097" transform="translate(199,72)"/>
<path d="M0 0 C0.66 1.32 1.32 2.64 2 4 C2.66 3.01 3.32 2.02 4 1 C4 3.64 4 6.28 4 9 C3.34 8.67 2.68 8.34 2 8 C1.34 8.66 0.68 9.32 0 10 C0 6.7 0 3.4 0 0 Z " fill="#8999A1" transform="translate(248,216)"/>
<path d="M0 0 C0.7425 0.0825 1.485 0.165 2.25 0.25 C1.29882866 1.4225131 0.33882991 2.58787015 -0.625 3.75 C-1.15867188 4.3996875 -1.69234375 5.049375 -2.2421875 5.71875 C-2.73976562 6.2240625 -3.23734375 6.729375 -3.75 7.25 C-4.41 7.25 -5.07 7.25 -5.75 7.25 C-6.08 6.26 -6.41 5.27 -6.75 4.25 C-3.42692308 0.31153846 -3.42692308 0.31153846 0 0 Z " fill="#A5B8C1" transform="translate(198.75,204.75)"/>
<path d="M0 0 C0.33 0.66 0.66 1.32 1 2 C-0.45264038 2.8638129 -1.9123163 3.71580454 -3.375 4.5625 C-4.59316406 5.27599609 -4.59316406 5.27599609 -5.8359375 6.00390625 C-6.55007813 6.33261719 -7.26421875 6.66132813 -8 7 C-8.66 6.67 -9.32 6.34 -10 6 C-3.71428571 0.42857143 -3.71428571 0.42857143 0 0 Z " fill="#85969D" transform="translate(287,168)"/>
<path d="M0 0 C1.67542976 0.28604898 3.34385343 0.61781233 5 1 C3.71937515 2.7074998 2.38232443 4.37373596 1 6 C0.34 6 -0.32 6 -1 6 C-1.042721 4.33388095 -1.04063832 2.66617115 -1 1 C-0.67 0.67 -0.34 0.34 0 0 Z " fill="#93A6AF" transform="translate(194,265)"/>
<path d="M0 0 C1.83590188 0.0377638 3.67051617 0.15454199 5.5 0.3125 C6.5003125 0.39113281 7.500625 0.46976563 8.53125 0.55078125 C9.75328125 0.77314453 9.75328125 0.77314453 11 1 C11.33 1.66 11.66 2.32 12 3 C10.20866022 3.05391993 8.41686101 3.09275571 6.625 3.125 C5.62726563 3.14820313 4.62953125 3.17140625 3.6015625 3.1953125 C1 3 1 3 -1 1 C-0.67 0.67 -0.34 0.34 0 0 Z " fill="#465257" transform="translate(203,237)"/>
<path d="M0 0 C1.32 0 2.64 0 4 0 C4 0.66 4 1.32 4 2 C2.35 2.66 0.7 3.32 -1 4 C-0.67 4.99 -0.34 5.98 0 7 C-0.99 7 -1.98 7 -3 7 C-1.125 1.125 -1.125 1.125 0 0 Z " fill="#B5DDF3" transform="translate(336,191)"/>
<path d="M0 0 C3.63 0.66 7.26 1.32 11 2 C11 2.33 11 2.66 11 3 C4.565 3.495 4.565 3.495 -2 4 C-1.34 2.68 -0.68 1.36 0 0 Z " fill="#849BA7" transform="translate(291,156)"/>
<path d="M0 0 C2.5654594 2.5654594 2.54046087 4.47686668 3 8 C2.01 8 1.02 8 0 8 C-0.98120464 4.94736336 -0.98120464 3.05263664 0 0 Z " fill="#96B1C0" transform="translate(280,140)"/>
<path d="M0 0 C0.99 0.33 1.98 0.66 3 1 C3 1.66 3 2.32 3 3 C1.04072937 4.7143618 -0.95880212 6.38405168 -3 8 C-3.66 7.67 -4.32 7.34 -5 7 C-3.35 4.69 -1.7 2.38 0 0 Z " fill="#9AB3C0" transform="translate(299,134)"/>
<path d="M0 0 C0.33 0 0.66 0 1 0 C1 1.98 1 3.96 1 6 C-1.70879335 7.35439668 -4.00933268 7.06501451 -7 7 C-5.1875 5 -5.1875 5 -3 3 C-2.01 3 -1.02 3 0 3 C0 2.01 0 1.02 0 0 Z " fill="#92A8B3" transform="translate(330,121)"/>
<path d="M0 0 C3.65316671 1.24976756 4.78065836 1.67098753 7 5 C5.824375 4.9690625 5.824375 4.9690625 4.625 4.9375 C2.01885039 4.81315937 2.01885039 4.81315937 0 6 C0 4.02 0 2.04 0 0 Z " fill="#9FB6C2" transform="translate(304,114)"/>
<path d="M0 0 C2.475 0.495 2.475 0.495 5 1 C4.01 1.99 3.02 2.98 2 4 C2.33 4.99 2.66 5.98 3 7 C2.01 7 1.02 7 0 7 C0 4.69 0 2.38 0 0 Z " fill="#CEE6F1" transform="translate(216,229)"/>
<path d="M0 0 C2 3 2 3 1.875 5.5625 C1 8 1 8 -3 10 C-2.01 6.7 -1.02 3.4 0 0 Z " fill="#95A6AE" transform="translate(154,190)"/>
<path d="M0 0 C2 3 2 3 2 5 C0.35 5 -1.3 5 -3 5 C-3.33 6.32 -3.66 7.64 -4 9 C-4 7.02 -4 5.04 -4 3 C-2.68 2.67 -1.36 2.34 0 2 C0 1.34 0 0.68 0 0 Z " fill="#91AAB7" transform="translate(215,91)"/>
<path d="M0 0 C-0.8125 1.9375 -0.8125 1.9375 -2 4 C-2.99 4.33 -3.98 4.66 -5 5 C-5.66 3.68 -6.32 2.36 -7 1 C-4.53721199 -0.231394 -2.7204945 -0.07159196 0 0 Z " fill="#A2B4BC" transform="translate(224,231)"/>
<path d="M0 0 C2.31 0 4.62 0 7 0 C8.125 3.75 8.125 3.75 7 6 C4.56070254 4.07423885 2.19909405 2.19909405 0 0 Z " fill="#9CAEB6" transform="translate(274,204)"/>
<path d="M0 0 C2.97 0.495 2.97 0.495 6 1 C4.35830472 3.02054804 2.69088222 5.02043058 1 7 C0.67 7 0.34 7 0 7 C0 4.69 0 2.38 0 0 Z " fill="#9BAEB6" transform="translate(169,189)"/>
<path d="M0 0 C0 0.99 0 1.98 0 3 C-2.61941217 4.74627478 -4.03824877 5.38722388 -7 6 C-7.33 5.34 -7.66 4.68 -8 4 C-2.25 0 -2.25 0 0 0 Z " fill="#B6DBEF" transform="translate(330,121)"/>
<path d="M0 0 C0.33 2.31 0.66 4.62 1 7 C-0.98 5.35 -2.96 3.7 -5 2 C-2 0 -2 0 0 0 Z " fill="#98A9B1" transform="translate(268,250)"/>
<path d="M0 0 C0.33 0 0.66 0 1 0 C1.66 1.98 2.32 3.96 3 6 C4.65 6.33 6.3 6.66 8 7 C8 7.33 8 7.66 8 8 C5.36 8.33 2.72 8.66 0 9 C0 6.03 0 3.06 0 0 Z " fill="#616F76" transform="translate(306,198)"/>
<path d="M0 0 C0.96661363 3.12180401 0.98988909 5.52083795 0.5625 8.75 C0.40974609 9.94882813 0.40974609 9.94882813 0.25390625 11.171875 C0.12822266 12.07679688 0.12822266 12.07679688 0 13 C-0.33 13 -0.66 13 -1 13 C-1 10.69 -1 8.38 -1 6 C-1.66 5.67 -2.32 5.34 -3 5 C-2.01 3.35 -1.02 1.7 0 0 Z " fill="#7C8990" transform="translate(145,138)"/>
<path d="M0 0 C0.66 0 1.32 0 2 0 C3.1577506 3.47325181 3.06866652 6.36067448 3 10 C1.00902154 7.01353231 0.05875074 4.40312738 -1 1 C-0.67 0.67 -0.34 0.34 0 0 Z " fill="#82939C" transform="translate(170,113)"/>
<path d="M0 0 C0.99 1.32 1.98 2.64 3 4 C1.68 4.99 0.36 5.98 -1 7 C-1.625 5.1875 -1.625 5.1875 -2 3 C-1.34 2.01 -0.68 1.02 0 0 Z " fill="#A3B6C0" transform="translate(203,256)"/>
<path d="M0 0 C1 2 2 4 3 6 C-0.37503669 4.8141763 -2.64722731 3.72426311 -5 1 C-3.35 0.67 -1.7 0.34 0 0 Z " fill="#86959D" transform="translate(258,243)"/>
<path d="M0 0 C0 0.99 0 1.98 0 3 C-1.98 3.99 -1.98 3.99 -4 5 C-4.99 3.68 -5.98 2.36 -7 1 C-3.535 0.505 -3.535 0.505 0 0 Z " fill="#829299" transform="translate(242,203)"/>
<path d="M0 0 C2.5625 2.25 2.5625 2.25 5 5 C4.8125 7.3125 4.8125 7.3125 4 9 C2 8 2 8 1.3671875 6.15234375 C1.20476562 5.42144531 1.04234375 4.69054687 0.875 3.9375 C0.70742188 3.20402344 0.53984375 2.47054687 0.3671875 1.71484375 C0.24601562 1.14894531 0.12484375 0.58304688 0 0 Z " fill="#748289" transform="translate(313,174)"/>
<path d="M0 0 C0.33 0.99 0.66 1.98 1 3 C-3.75 4.125 -3.75 4.125 -6 3 C-6 2.34 -6 1.68 -6 1 C-4 0 -4 0 0 0 Z " fill="#B5DDF3" transform="translate(185,153)"/>
<path d="M0 0 C1.32 0 2.64 0 4 0 C3.67 2.97 3.34 5.94 3 9 C1.35649921 5.71299843 0.58678331 3.52069985 0 0 Z " fill="#8FA5B1" transform="translate(262,116)"/>
<path d="M0 0 C2 2 2 2 2.125 4.625 C2.08375 5.40875 2.0425 6.1925 2 7 C0.68 7 -0.64 7 -2 7 C-1.125 2.25 -1.125 2.25 0 0 Z " fill="#B5DBF1" transform="translate(169,115)"/>
<path d="M0 0 C0.33 1.32 0.66 2.64 1 4 C1.66 4 2.32 4 3 4 C2.1875 5.9375 2.1875 5.9375 1 8 C0.01 8.33 -0.98 8.66 -2 9 C-1.34 6.03 -0.68 3.06 0 0 Z " fill="#8AA1AD" transform="translate(228,80)"/>
<path d="M0 0 C0.66 0.33 1.32 0.66 2 1 C-0.31 3.31 -2.62 5.62 -5 8 C-5 5 -5 5 -2.5 2.3125 C-1.675 1.549375 -0.85 0.78625 0 0 Z " fill="#A4AAAC" transform="translate(24,306)"/>
<path d="M0 0 C0.99 0 1.98 0 3 0 C2.67 1.65 2.34 3.3 2 5 C1.01 5.33 0.02 5.66 -1 6 C-0.67 4.02 -0.34 2.04 0 0 Z " fill="#94A6AE" transform="translate(253,210)"/>
<path d="M0 0 C0.33 0 0.66 0 1 0 C1.33 3.63 1.66 7.26 2 11 C1.67 10.01 1.34 9.02 1 8 C0.34 8 -0.32 8 -1 8 C-0.67 5.36 -0.34 2.72 0 0 Z " fill="#748086" transform="translate(261,90)"/>
<path d="M0 0 C1.37562854 1.28965176 2.70766393 2.62689293 4 4 C4 4.66 4 5.32 4 6 C2.68 6.33 1.36 6.66 0 7 C0 4.69 0 2.38 0 0 Z " fill="#6D7C83" transform="translate(256,65)"/>
<path d="" fill="#353E42" transform="translate(0,0)"/>
<path d="" fill="#19242A" transform="translate(0,0)"/>
<path d="" fill="#19242A" transform="translate(0,0)"/>
</svg>
